<?xml version="1.0" standalone="no"?>
<!DOCTYPE svg PUBLIC "-//W3C//DTD SVG 1.1//EN" "http://www.w3.org/Graphics/SVG/1.1/DTD/svg11.dtd" >
<svg xmlns="http://www.w3.org/2000/svg" xmlns:xlink="http://www.w3.org/1999/xlink" version="1.1">
<metadata>
Created by FontForge 20170731 at Thu Feb  7 17:02:16 2002
 By Aleksey,,,
Copyright (c) 1989, 2001 Adobe Systems Incorporated.  All Rights Reserved.
</metadata>
<defs>
<font id="BauhausStd-Heavy" horiz-adv-x="611" >
  <font-face 
    font-family="Bauhaus Std Heavy"
    font-weight="850"
    font-stretch="normal"
    units-per-em="1000"
    panose-1="0 0 9 0 0 0 0 0 0 0"
    ascent="700"
    descent="-300"
    x-height="500"
    cap-height="700"
    bbox="-167 -218 1146 940"
    underline-thickness="50"
    underline-position="-200"
    unicode-range="U+0020-FB02"
  />
<missing-glyph horiz-adv-x="500" 
d="M0 0v700h500v-700h-500zM250 395l170 255h-340zM280 350l170 -255v510zM80 50h340l-170 255zM50 605v-510l170 255z" />
    <glyph glyph-name="fi" unicode="fi" horiz-adv-x="648" 
d="M236 0h-200v492q0 94 50 151t129 57h141v-166h-77q-43 0 -43 -40h120v-172h-120v-322zM609 0h-200v500h200v-500zM509 776q49 0 83.5 -35t34.5 -83t-34.5 -83t-83.5 -35t-83.5 35t-34.5 83t34.5 83t83.5 35z" />
    <glyph glyph-name="fl" unicode="fl" horiz-adv-x="648" 
d="M236 0h-200v492q0 94 50 151t129 57h141v-166h-77q-43 0 -43 -40h120v-172h-120v-322zM409 0v700h200v-700h-200z" />
    <glyph glyph-name=".notdef" horiz-adv-x="500" 
d="M0 0v700h500v-700h-500zM250 395l170 255h-340zM280 350l170 -255v510zM80 50h340l-170 255zM50 605v-510l170 255z" />
    <glyph glyph-name=".null" horiz-adv-x="0" 
 />
    <glyph glyph-name="nonmarkingreturn" horiz-adv-x="333" 
 />
    <glyph glyph-name="space" unicode=" " horiz-adv-x="305" 
 />
    <glyph glyph-name="exclam" unicode="!" horiz-adv-x="333" 
d="M77 250l-22 450h222l-21 -450h-179zM166 224q49 0 83.5 -34.5t34.5 -83.5t-34.5 -83.5t-83.5 -34.5t-83.5 34.5t-34.5 83.5t34.5 83.5t83.5 34.5z" />
    <glyph glyph-name="quotedbl" unicode="&#x22;" horiz-adv-x="333" 
d="M198 430v270h128v-270h-128zM7 430v270h128v-270h-128z" />
    <glyph glyph-name="numbersign" unicode="#" 
d="M99 0l28 190h-86l4 102h96l16 117h-86l4 102h94l27 189h116l-27 -189h91l27 189h116l-26 -189h76l-4 -102h-86l-16 -117h76l-4 -102h-86l-27 -190h-116l27 190h-91l-27 -190h-116zM363 409h-91l-16 -117h91z" />
    <glyph glyph-name="dollar" unicode="$" 
d="M510 700v-196h-133q-37 0 -50 -5.5t-13 -19.5q0 -12 23 -30.5t56 -42.5t66 -53.5t56 -71.5t23 -87q0 -76 -52 -127.5t-148 -62.5v-82h-102v78h-164v200h133q48 0 64.5 6.5t16.5 26.5q0 12 -22 31.5t-53 43t-62 52t-53 68t-22 80.5q0 158 162 185v85h102v-78h172z" />
    <glyph glyph-name="percent" unicode="%" horiz-adv-x="870" 
d="M633 222q-19 0 -33 -14t-14 -33t14 -33t33 -14t33 14t14 33t-14 33t-33 14zM148 -12l475 724h98l-476 -724h-97zM236 572q-19 0 -33 -14t-14 -33t14 -33t33 -14t33 14t14 33t-14 33t-33 14zM633 362q77 0 132 -55t55 -132t-55 -132t-132 -55t-132 55t-55 132t55 132
t132 55zM236 712q77 0 132 -55t55 -132t-55 -132t-132 -55t-132 55t-55 132t55 132t132 55z" />
    <glyph glyph-name="ampersand" unicode="&#x26;" horiz-adv-x="796" 
d="M556 700v-182h-184l162 -193q16 37 16 52q0 39 -18 70l163 85q43 -76 43 -157q0 -95 -81 -200l142 -175h-249l-36 46q-84 -58 -208 -58q-110 0 -192.5 74t-82.5 183q0 78 30 130.5t96 100.5q-2 2 -19 21.5t-22.5 27.5t-13 26.5t-7.5 36.5q0 49 41.5 80.5t103.5 31.5h316z
M385 203l-108 130q-36 -20 -36 -67q0 -34 24.5 -56t59.5 -22q33 0 60 15z" />
    <glyph glyph-name="quotesingle" unicode="'" horiz-adv-x="222" 
d="M47 430v270h128v-270h-128z" />
    <glyph glyph-name="parenleft" unicode="(" horiz-adv-x="407" 
d="M278 816l98 -116q-61 -76 -91 -126.5t-46.5 -115t-16.5 -153.5q0 -231 157 -403l-96 -116q-233 220 -233 519q0 146 59.5 280t168.5 231z" />
    <glyph glyph-name="parenright" unicode=")" horiz-adv-x="407" 
d="M129 -214l-98 116q61 76 91 126.5t46.5 115t16.5 153.5q0 231 -157 403l96 116q233 -220 233 -519q0 -146 -59.5 -280t-168.5 -231z" />
    <glyph glyph-name="asterisk" unicode="*" horiz-adv-x="519" 
d="M392 661l67 -118l-88 -36l88 -37l-68 -118l-76 60l12 -96h-136l14 97l-78 -60l-68 118l91 37l-91 37l69 118l78 -60l-13 97h137l-14 -96z" />
    <glyph glyph-name="plus" unicode="+" horiz-adv-x="600" 
d="M233 317v183h134v-183h183v-134h-183v-183h-134v183h-183v134h183z" />
    <glyph glyph-name="comma" unicode="," horiz-adv-x="305" 
d="M16 -72l51 292h197l-96 -292h-152z" />
    <glyph glyph-name="hyphen" unicode="-" horiz-adv-x="389" 
d="M56 181v138h276v-138h-276z" />
    <glyph glyph-name="period" unicode="." horiz-adv-x="305" 
d="M152 228q50 0 85 -35t35 -85t-35 -85t-85 -35t-85 35t-35 85t35 85t85 35z" />
    <glyph glyph-name="slash" unicode="/" horiz-adv-x="444" 
d="M-5 -12l319 724h135l-319 -724h-135z" />
    <glyph glyph-name="zero" unicode="0" 
d="M42 266v176q0 125 69 197.5t194 72.5t194 -72.5t69 -197.5v-176q0 -132 -68.5 -205t-194.5 -73t-194.5 73t-68.5 205zM260 448v-196q0 -68 45 -68t45 68v196q0 68 -45 68t-45 -68z" />
    <glyph glyph-name="one" unicode="1" 
d="M137 526v174h298v-700h-218v526h-80z" />
    <glyph glyph-name="two" unicode="2" 
d="M376 190h192v-190h-432q-40 0 -66.5 21.5t-26.5 54.5q0 31 29 68q40 51 113.5 128t117 126.5t43.5 70.5q0 20 -12.5 33.5t-32.5 13.5t-32.5 -13.5t-12.5 -33.5q0 -28 29 -42l-138 -152q-55 52 -80 96.5t-25 110.5q0 104 79 167t184 63q116 0 189.5 -65.5t73.5 -177.5
q0 -37 -22.5 -79.5t-47.5 -70.5t-66.5 -70t-55.5 -59z" />
    <glyph glyph-name="three" unicode="3" 
d="M128 388l156 116v2h-215v194h331q56 0 94.5 -33t38.5 -94q0 -20 -8.5 -39t-26 -37t-31 -29.5t-37.5 -29.5l-32 -24q70 -17 111.5 -71t41.5 -126q0 -108 -74.5 -162.5t-184.5 -54.5h-232v194h210q29 0 45 12.5t16 32.5t-16 32.5t-45 12.5h-142v104z" />
    <glyph glyph-name="four" unicode="4" 
d="M498 141v-141h-212v141h-154q-63 0 -91.5 32t-28.5 81q0 31 21 68l220 378h203l-242 -391h92v83l190 308h2v-374h78v-185h-78z" />
    <glyph glyph-name="five" unicode="5" 
d="M85 286v414h410v-190h-202v-42q117 0 182.5 -57.5t65.5 -169.5q0 -109 -70 -175t-199 -66h-194v194h152q48 0 65.5 10.5t17.5 35.5t-17.5 35.5t-65.5 10.5h-145z" />
    <glyph glyph-name="six" unicode="6" 
d="M244 700h234q-50 -108 -108.5 -223t-85.5 -168.5t-27 -66.5q0 -26 16 -43t39 -17q22 0 37.5 16t15.5 33q0 20 -17.5 37.5t-37.5 19.5l87 180q70 -23 120 -83.5t50 -130.5q0 -110 -69.5 -188t-177.5 -78q-120 0 -194.5 69.5t-74.5 189.5q0 51 24.5 110t79 160t89.5 183z
" />
    <glyph glyph-name="seven" unicode="7" 
d="M62 504v196h331q57 0 98 -24.5t41 -69.5q0 -37 -61 -214l-133 -392h-231l187 504h-232z" />
    <glyph glyph-name="eight" unicode="8" 
d="M305 712q56 0 106.5 -18t87.5 -62t37 -107q0 -82 -57 -128q40 -27 64 -72.5t24 -94.5q0 -111 -72.5 -176.5t-189.5 -65.5t-189.5 65.5t-72.5 176.5q0 49 24 94.5t64 72.5q-57 46 -57 128q0 63 37 107t87.5 62t106.5 18zM305 290q-22 0 -38 -15.5t-16 -36.5t16 -36.5
t38 -15.5t38 15.5t16 36.5t-16 36.5t-38 15.5zM305 540q-20 0 -33.5 -14.5t-13.5 -33.5t13.5 -33.5t33.5 -14.5t33.5 14.5t13.5 33.5t-13.5 33.5t-33.5 14.5z" />
    <glyph glyph-name="nine" unicode="9" 
d="M371 0h-234q50 108 108.5 223t85.5 168.5t27 66.5q0 26 -16 43t-39 17q-21 0 -37 -16t-16 -33q0 -20 17.5 -37.5t37.5 -19.5l-87 -180q-70 23 -120 83.5t-50 130.5q0 110 69.5 188t177.5 78q120 0 194.5 -69.5t74.5 -189.5q0 -51 -24.5 -110t-79 -160t-89.5 -183z" />
    <glyph glyph-name="colon" unicode=":" horiz-adv-x="305" 
d="M152 512q50 0 85 -35t35 -85t-35 -85t-85 -35t-85 35t-35 85t35 85t85 35zM152 228q50 0 85 -35t35 -85t-35 -85t-85 -35t-85 35t-35 85t35 85t85 35z" />
    <glyph glyph-name="semicolon" unicode=";" horiz-adv-x="305" 
d="M16 -72l51 292h197l-96 -292h-152zM152 512q50 0 85 -35t35 -85t-35 -85t-85 -35t-85 35t-35 85t35 85t85 35z" />
    <glyph glyph-name="less" unicode="&#x3c;" horiz-adv-x="600" 
d="M550 106v-130l-500 212v124l500 212v-130l-346 -144z" />
    <glyph glyph-name="equal" unicode="=" horiz-adv-x="600" 
d="M550 428v-134h-500v134h500zM550 206v-134h-500v134h500z" />
    <glyph glyph-name="greater" unicode="&#x3e;" horiz-adv-x="600" 
d="M50 -24v130l346 144l-346 144v130l500 -212v-124z" />
    <glyph glyph-name="question" unicode="?" horiz-adv-x="519" 
d="M164 436h52q44 0 61 9t17 31q0 16 -12 28t-29 12q-37 0 -54 -41l-188 75q75 162 259 162q102 0 170 -62t68 -163q0 -77 -41.5 -130.5t-116.5 -70.5v-34h-186v184zM256 224q49 0 83.5 -34.5t34.5 -83.5t-34.5 -83.5t-83.5 -34.5t-83.5 34.5t-34.5 83.5t34.5 83.5
t83.5 34.5z" />
    <glyph glyph-name="at" unicode="@" horiz-adv-x="800" 
d="M385 248q44 0 71.5 30t27.5 72q0 35 -21 56.5t-56 21.5q-40 0 -67.5 -31t-27.5 -69q0 -35 19.5 -57.5t53.5 -22.5zM513 478l9 46h92l-43 -231q0 -2 -3 -12.5t-3 -16.5q0 -25 13 -25q35 0 62 38t27 110q0 113 -69 171t-185 58t-189.5 -74t-73.5 -193q0 -125 77 -195
t203 -70q116 0 184 51h107q-107 -147 -299 -147q-166 0 -278 102t-112 259q0 154 112 258.5t272 104.5q90 0 169.5 -35t130.5 -103.5t51 -155.5q0 -63 -21 -114t-51.5 -81t-67.5 -50t-66 -27.5t-50 -7.5q-55 0 -57 47l-2 2q-42 -49 -93 -49q-64 0 -112.5 52t-48.5 122
q0 89 55 155.5t141 66.5q77 0 119 -56z" />
    <glyph glyph-name="A" unicode="A" horiz-adv-x="630" 
d="M297 213v178h67v62q0 26 -14 41.5t-36 15.5t-35.5 -15t-13.5 -42v-453h-218v448q0 40 15 83t44.5 85t84 69t124.5 27q56 0 103 -18t76.5 -46.5t50 -64.5t29 -70t8.5 -65v-448h-218v213h-67z" />
    <glyph glyph-name="B" unicode="B" horiz-adv-x="630" 
d="M266 0h-218v478q0 105 72.5 169.5t193.5 64.5q99 0 172.5 -58t73.5 -155q0 -69 -45 -119q89 -54 89 -171q0 -98 -62 -153.5t-156 -55.5h-90v186q83 5 83 50q0 16 -7.5 26.5t-22.5 14t-25 4.5t-28 1v154q23 0 36.5 12.5t13.5 34.5q0 16 -13 25.5t-29 9.5q-20 0 -29 -12.5
t-9 -41.5v-464z" />
    <glyph glyph-name="C" unicode="C" horiz-adv-x="519" 
d="M486 200v-200h-115q-139 0 -238.5 100.5t-99.5 248.5q0 149 99.5 250t238.5 101h115v-200h-65q-69 0 -115.5 -41.5t-46.5 -109.5q0 -67 46.5 -108t115.5 -41h65z" />
    <glyph glyph-name="D" unicode="D" horiz-adv-x="667" 
d="M272 0h-218v700h221q165 0 262 -102t97 -267q0 -129 -91 -230t-239 -101v200q51 4 79.5 44t28.5 106q0 61 -34 105.5t-106 44.5v-500z" />
    <glyph glyph-name="E" unicode="E" horiz-adv-x="537" 
d="M500 434v-168h-224q35 -80 140 -80h84v-186h-110q-64 0 -125 22t-113 63.5t-84 110.5t-32 154t32 154t84 110.5t113 63.5t125 22h110v-186h-84q-105 0 -140 -80h224z" />
    <glyph glyph-name="F" unicode="F" horiz-adv-x="481" 
d="M264 0h-218v428q0 81 17 135t53 83.5t83 41.5t115 12h141v-196h-135q-56 0 -56 -85h191v-180h-191v-239z" />
    <glyph glyph-name="G" unicode="G" horiz-adv-x="796" 
d="M685 600l-154 -144q-61 54 -120 54q-67 0 -112 -45t-45 -115t45 -115t112 -45q32 0 64.5 21.5t45.5 50.5h-153v170h398v-40q0 -108 -40 -198t-123 -148t-195 -58q-155 0 -263.5 103t-108.5 253q0 157 103.5 262.5t254.5 105.5q81 0 157 -29t134 -83z" />
    <glyph glyph-name="H" unicode="H" horiz-adv-x="648" 
d="M269 0h-218v700h218v-242h109v242h218v-700h-218v272h-109v-272z" />
    <glyph glyph-name="I" unicode="I" horiz-adv-x="315" 
d="M266 0h-218v700h218v-700z" />
    <glyph glyph-name="J" unicode="J" horiz-adv-x="463" 
d="M20 0v200h62q56 0 76 11.5t20 42.5v446h218v-472q0 -99 -65 -163.5t-181 -64.5h-130z" />
    <glyph glyph-name="K" unicode="K" horiz-adv-x="630" 
d="M269 0h-218v700h218v-251q14 1 20.5 8t13.5 29l71 214h219l-69 -211q-22 -65 -57 -98q46 -16 77 -49t31 -74v-268h-218v242q0 44 -88 43v-285z" />
    <glyph glyph-name="L" unicode="L" horiz-adv-x="444" 
d="M449 200v-200h-192q-91 0 -149.5 57.5t-58.5 148.5v494h218v-432q0 -44 23.5 -56t117.5 -12h41z" />
    <glyph glyph-name="M" unicode="M" horiz-adv-x="870" 
d="M246 0h-211l47 565q12 147 145 147q73 0 104 -24t47 -87l56 -216h2l56 216q16 63 47 87t104 24q133 0 145 -147l47 -565h-211l-24 412h-2l-74 -307q-17 -74 -33.5 -95.5t-55.5 -21.5t-55.5 21.5t-33.5 95.5l-74 307h-2z" />
    <glyph glyph-name="N" unicode="N" horiz-adv-x="685" 
d="M272 288v-288h-218v586q0 67 37.5 96.5t80.5 29.5t77 -24.5t50 -56.5l112 -221h2v290h218v-588q0 -67 -37.5 -96.5t-80.5 -29.5t-77 24.5t-50 56.5l-112 221h-2z" />
    <glyph glyph-name="O" unicode="O" horiz-adv-x="796" 
d="M398 490q-58 0 -99 -41t-41 -99t41 -99t99 -41t99 41t41 99t-41 99t-99 41zM398 712q149 0 255.5 -106.5t106.5 -255.5t-106.5 -255.5t-255.5 -106.5t-255.5 106.5t-106.5 255.5t106.5 255.5t255.5 106.5z" />
    <glyph glyph-name="P" unicode="P" horiz-adv-x="574" 
d="M266 0h-218v416q0 150 73 223t187 73q111 0 185.5 -71t74.5 -176q0 -125 -69.5 -190t-204.5 -65v192q28 0 49.5 12t21.5 37t-12.5 41t-33.5 16q-53 0 -53 -66v-442z" />
    <glyph glyph-name="Q" unicode="Q" horiz-adv-x="796" 
d="M495 0v-96h-172v390h165v-50q21 15 37 45.5t13 60.5q0 55 -38.5 97.5t-101.5 42.5t-101.5 -42.5t-38.5 -97.5q0 -59 33 -90v-258q-110 33 -182.5 131t-72.5 217q0 149 106.5 255.5t255.5 106.5t255.5 -106.5t106.5 -255.5q0 -121 -71 -215t-194 -135z" />
    <glyph glyph-name="R" unicode="R" 
d="M265 0h-218v442q0 130 70 200t197 70q96 0 173.5 -60t77.5 -154q0 -40 -18 -80t-49 -65q77 -28 77 -143v-210h-218v175q0 39 -12 54t-50 15v168q70 0 70 50q0 52 -50 52q-27 0 -38.5 -13.5t-11.5 -52.5v-448z" />
    <glyph glyph-name="S" unicode="S" horiz-adv-x="500" 
d="M23 200h133q48 0 64.5 6.5t16.5 26.5q0 12 -22 31.5t-53 43t-62 52t-53 68t-22 80.5q0 53 19 92t53 60t74.5 30.5t89.5 9.5h200v-196h-133q-37 0 -50 -5.5t-13 -19.5q0 -12 23 -30.5t56 -42.5t66 -53.5t56 -71.5t23 -87q0 -87 -67 -140.5t-188 -53.5h-211v200z" />
    <glyph glyph-name="T" unicode="T" horiz-adv-x="444" 
d="M-2 500v200h449v-200h-116v-500h-218v500h-115z" />
    <glyph glyph-name="U" unicode="U" horiz-adv-x="630" 
d="M42 700h218v-462q0 -22 12.5 -37t36.5 -15t36.5 15t12.5 37v462h218v-474q0 -105 -79 -171.5t-188 -66.5t-188 66.5t-79 171.5v474z" />
    <glyph glyph-name="V" unicode="V" horiz-adv-x="593" 
d="M3 700h225l67 -433h2l70 433h222l-118 -540q-22 -101 -57.5 -136.5t-117.5 -35.5t-117.5 35.5t-57.5 136.5z" />
    <glyph glyph-name="W" unicode="W" horiz-adv-x="926" 
d="M354 700h218v-441q0 -40 8 -55.5t35 -15.5t35 15.5t8 55.5v441h218v-478q0 -41 -14 -80t-42.5 -74.5t-81.5 -57.5t-123 -22q-37 0 -79 17t-73 50q-31 -33 -73 -50t-79 -17q-70 0 -123 22t-81.5 57.5t-42.5 74.5t-14 80v478h218v-441q0 -40 8 -55.5t35 -15.5t35 15.5
t8 55.5v441z" />
    <glyph glyph-name="X" unicode="X" horiz-adv-x="630" 
d="M596 700v-196q-79 -1 -125.5 -38.5t-46.5 -114.5q0 -78 46.5 -116t125.5 -39v-196q-124 0 -171.5 14.5t-109.5 81.5q-62 -67 -109.5 -81.5t-171.5 -14.5v196q79 1 125.5 39t46.5 116q0 77 -46.5 114.5t-125.5 38.5v196q124 0 171.5 -14.5t109.5 -81.5q62 67 109.5 81.5
t171.5 14.5z" />
    <glyph glyph-name="Y" unicode="Y" horiz-adv-x="556" 
d="M386 0h-216v246q-53 9 -95 52q-49 52 -49 132v270h218v-243q0 -31 34 -31t34 31v243h218v-270q0 -81 -44.5 -128t-99.5 -56v-246z" />
    <glyph glyph-name="Z" unicode="Z" horiz-adv-x="537" 
d="M528 200v-200h-369q-64 0 -107.5 33.5t-43.5 105.5q0 28 8 50t35 55l215 256h-222v200h333q64 0 107.5 -33.5t43.5 -105.5q0 -27 -8 -49t-35 -56l-205 -256h248z" />
    <glyph glyph-name="bracketleft" unicode="[" horiz-adv-x="389" 
d="M343 -172h-252v944h252v-120h-90v-704h90v-120z" />
    <glyph glyph-name="backslash" unicode="\" horiz-adv-x="278" 
d="M-77 712h134l298 -724h-134z" />
    <glyph glyph-name="bracketright" unicode="]" horiz-adv-x="389" 
d="M46 772h252v-944h-252v120h90v704h-90v120z" />
    <glyph glyph-name="asciicircum" unicode="^" horiz-adv-x="600" 
d="M189 335h-132l174 365h138l174 -365h-133l-110 248z" />
    <glyph glyph-name="underscore" unicode="_" horiz-adv-x="500" 
d="M500 -125h-500v50h500v-50z" />
    <glyph glyph-name="grave" unicode="`" horiz-adv-x="278" 
d="M241 613l-14 -53l-258 44l36 126z" />
    <glyph glyph-name="a" unicode="a" 
d="M579 0h-202v250q0 32 -22 52t-52 20t-50 -19.5t-20 -52.5q0 -32 19.5 -52t45.5 -20q22 0 52 11v-196q-45 -5 -69 -5q-103 0 -176.5 73t-73.5 174q0 122 75.5 199.5t184.5 77.5q58 0 108.5 -18.5t91.5 -55.5t64.5 -99.5t23.5 -144.5v-194z" />
    <glyph glyph-name="b" unicode="b" 
d="M38 699h200v-433q0 -43 20.5 -65.5t53.5 -22.5q29 0 49.5 20t20.5 52t-22.5 52t-50.5 20q-20 0 -49 -11v197q28 4 68 4q109 0 176.5 -73t67.5 -183q0 -118 -75 -193t-184 -75q-121 0 -198 79t-77 239v393z" />
    <glyph glyph-name="c" unicode="c" horiz-adv-x="426" 
d="M395 172v-172h-122q-102 0 -172.5 75.5t-70.5 174.5q0 100 70.5 175t172.5 75h122v-172h-67q-96 0 -96 -78t96 -78h67z" />
    <glyph glyph-name="d" unicode="d" 
d="M373 700h200v-394q0 -160 -77 -239t-198 -79q-109 0 -184 75t-75 193q0 110 67.5 183t176.5 73q40 0 68 -4v-197q-29 11 -49 11q-28 0 -50.5 -20t-22.5 -52t20.5 -52t49.5 -20q33 0 53.5 22.5t20.5 65.5v434z" />
    <glyph glyph-name="e" unicode="e" horiz-adv-x="593" 
d="M558 318l-249 -137l-57 101l100 55q-26 21 -63 21q-24 0 -48 -30t-24 -62q0 -49 26 -80.5t74 -31.5q65 0 128 67l113 -114q-48 -54 -116.5 -86.5t-143.5 -32.5q-115 0 -189 76t-74 193q0 107 77.5 181t175.5 74q106 0 174.5 -52.5t95.5 -141.5z" />
    <glyph glyph-name="f" unicode="f" horiz-adv-x="370" 
d="M236 0h-200v492q0 94 50 151t129 57h141v-166h-77q-43 0 -43 -40h120v-172h-120v-322z" />
    <glyph glyph-name="g" unicode="g" horiz-adv-x="593" 
d="M83 -188v169q124 -27 165 -27q45 0 78 18t33 53v229q0 31 -19.5 47.5t-45.5 16.5t-45 -16.5t-19 -47.5t19 -47.5t45 -16.5q21 0 38 7v-183q-36 -14 -72 -14q-99 0 -163.5 76t-64.5 176q0 110 77.5 185t187.5 75q99 0 181.5 -70.5t82.5 -168.5v-248q0 -112 -72.5 -175.5
t-203.5 -63.5q-91 0 -202 26z" />
    <glyph glyph-name="h" unicode="h" horiz-adv-x="556" 
d="M237 0h-200v700h199v-224q53 36 104 36q75 0 127 -51t52 -161v-300h-200v269q0 63 -41 63t-41 -63v-269z" />
    <glyph glyph-name="i" unicode="i" horiz-adv-x="278" 
d="M239 0h-200v500h200v-500zM139 776q49 0 83.5 -35t34.5 -83t-34.5 -83t-83.5 -35t-83.5 35t-34.5 83t34.5 83t83.5 35z" />
    <glyph glyph-name="j" unicode="j" horiz-adv-x="296" 
d="M52 500h200v-485q0 -96 -50.5 -156t-151.5 -60h-105v173h66q25 0 33 12.5t8 47.5v468zM152 776q49 0 83.5 -35t34.5 -83t-34.5 -83t-83.5 -35t-83.5 35t-34.5 83t34.5 83t83.5 35z" />
    <glyph glyph-name="k" unicode="k" horiz-adv-x="556" 
d="M236 0h-200v700h200v-352q17 1 26.5 10.5t14 23.5t15.5 49.5t24 68.5h204q-12 -25 -28.5 -76.5t-35 -84t-52.5 -52.5q70 -34 88.5 -71t18.5 -125v-91h-200v141q0 30 -20 40.5t-55 12.5v-194z" />
    <glyph glyph-name="l" unicode="l" horiz-adv-x="278" 
d="M39 0v700h200v-700h-200z" />
    <glyph glyph-name="m" unicode="m" horiz-adv-x="815" 
d="M507 0h-200v259q0 73 -37 73q-36 0 -36 -73v-259h-200v314q0 86 62.5 142t152.5 56q96 0 158 -62q62 62 158 62q90 0 152.5 -56t62.5 -142v-314h-200v259q0 73 -36 73q-37 0 -37 -73v-259z" />
    <glyph glyph-name="n" unicode="n" horiz-adv-x="537" 
d="M232 0h-200v300q0 92 62 152t174 60t174 -60t62 -152v-300h-200v269q0 32 -8.5 45.5t-27.5 13.5t-27.5 -13.5t-8.5 -45.5v-269z" />
    <glyph glyph-name="o" unicode="o" horiz-adv-x="593" 
d="M296 314q-26 0 -45.5 -19t-19.5 -45t19.5 -45t45.5 -19t45.5 19t19.5 45t-19.5 45t-45.5 19zM296 512q108 0 185.5 -77t77.5 -185t-77.5 -185t-185.5 -77q-109 0 -186 77t-77 185q0 109 77 185.5t186 76.5z" />
    <glyph glyph-name="p" unicode="p" 
d="M238 -201h-200v395q0 160 77 239t198 79q109 0 184 -75t75 -193q0 -110 -67.5 -183t-176.5 -73q-40 0 -68 4v197q29 -11 49 -11q28 0 50.5 20t22.5 52t-20.5 52t-49.5 20q-33 0 -53.5 -22.5t-20.5 -65.5v-435z" />
    <glyph glyph-name="q" unicode="q" 
d="M573 -201h-200v435q0 43 -20.5 65.5t-53.5 22.5q-29 0 -49.5 -20t-20.5 -52t22.5 -52t50.5 -20q20 0 49 11v-197q-28 -4 -68 -4q-109 0 -176.5 73t-67.5 183q0 118 75 193t184 75q121 0 198 -79t77 -239v-395z" />
    <glyph glyph-name="r" unicode="r" horiz-adv-x="426" 
d="M36 0v500h190v-59h2q31 45 63.5 58t102.5 13h24v-172h-22q-89 0 -125 -35t-36 -118v-187h-199z" />
    <glyph glyph-name="s" unicode="s" horiz-adv-x="444" 
d="M396 500v-160h-116q-6 0 -12 -4t-6 -10q0 -9 15.5 -19t37.5 -22.5t44.5 -29t38 -47t15.5 -69.5q0 -66 -46 -102.5t-130 -36.5h-207v168h120q39 0 39 19q0 10 -16 20t-39.5 21t-46.5 26.5t-39 44.5t-16 68q0 60 47.5 96.5t109.5 36.5h207z" />
    <glyph glyph-name="t" unicode="t" horiz-adv-x="370" 
d="M338 500v-172h-108v-91q0 -42 14 -56.5t52 -14.5h42v-166h-122q-86 0 -136 50.5t-50 153.5v454h200v-158h108z" />
    <glyph glyph-name="u" unicode="u" horiz-adv-x="537" 
d="M304 500h200v-300q0 -92 -62 -152t-174 -60t-174 60t-62 152v300h200v-269q0 -32 8.5 -45.5t27.5 -13.5t27.5 13.5t8.5 45.5v269z" />
    <glyph glyph-name="v" unicode="v" horiz-adv-x="537" 
d="M13 500h199l55 -306h2l54 306h200l-98 -385q-16 -63 -52.5 -95t-104.5 -32t-104.5 32t-52.5 95z" />
    <glyph glyph-name="w" unicode="w" horiz-adv-x="815" 
d="M307 500h200v-259q0 -73 37 -73q36 0 36 73v259h200v-314q0 -86 -62.5 -142t-152.5 -56q-96 0 -158 62q-62 -62 -158 -62q-90 0 -152.5 56t-62.5 142v314h200v-259q0 -73 36 -73q37 0 37 73v259z" />
    <glyph glyph-name="x" unicode="x" horiz-adv-x="500" 
d="M464 500v-172h-38q-78 0 -78 -78t78 -78h38v-172h-52q-108 0 -162 69q-54 -69 -162 -69h-52v172h38q78 0 78 78t-78 78h-38v172h52q108 0 162 -69q54 69 162 69h52z" />
    <glyph glyph-name="y" unicode="y" horiz-adv-x="537" 
d="M363 -201h-194v199q-63 31 -97 77q-39 51 -39 116v309h199v-269q0 -59 36 -59t36 59v269h199v-301q0 -69 -35.5 -122.5t-104.5 -78.5v-199z" />
    <glyph glyph-name="z" unicode="z" horiz-adv-x="519" 
d="M488 168v-168h-311q-76 0 -112.5 22t-36.5 80q0 48 44 89l152 141h-161v168h287q64 0 102.5 -25.5t38.5 -74.5q0 -35 -10.5 -55.5t-47.5 -54.5l-130 -122h185z" />
    <glyph glyph-name="braceleft" unicode="{" horiz-adv-x="389" 
d="M345 -80v-92h-100q-42 0 -88 37.5t-46 101.5v216q0 68 -98 72v100q13 0 26.5 2t31.5 7.5t29 18.5t11 33v216q0 64 46 102t88 38h100v-92h-20q-28 0 -40 -15t-12 -50v-212q0 -28 -12 -48t-31 -29.5t-35 -14t-33 -5.5v-4q111 -6 111 -105v-213q0 -64 52 -64h20z" />
    <glyph glyph-name="bar" unicode="|" horiz-adv-x="222" 
d="M44 0v700h134v-700h-134z" />
    <glyph glyph-name="braceright" unicode="}" horiz-adv-x="389" 
d="M44 684v92h100q42 0 88 -37.5t46 -101.5v-216q0 -68 98 -72v-100q-13 0 -26.5 -2t-31.5 -7.5t-29 -18.5t-11 -33v-216q0 -64 -46 -102t-88 -38h-100v92h20q28 0 40 15t12 50v212q0 28 12 48t31 29.5t35 14t33 5.5v4q-111 6 -111 105v213q0 64 -52 64h-20z" />
    <glyph glyph-name="asciitilde" unicode="~" horiz-adv-x="600" 
d="M495 359l36 -128q-20 -27 -33 -42t-38 -29.5t-54 -14.5q-38 0 -104 34t-113 34q-51 0 -84 -72l-36 128q45 86 125 86q41 0 115 -34q76 -34 98 -34q19 0 36.5 12t27 24.5t24.5 35.5z" />
    <glyph glyph-name="uni00A0" unicode="&#xa0;" horiz-adv-x="305" 
 />
    <glyph glyph-name="exclamdown" unicode="&#xa1;" horiz-adv-x="333" 
d="M256 250l22 -450h-222l21 450h179zM167 276q-49 0 -83.5 34.5t-34.5 83.5t34.5 83.5t83.5 34.5t83.5 -34.5t34.5 -83.5t-34.5 -83.5t-83.5 -34.5z" />
    <glyph glyph-name="cent" unicode="&#xa2;" 
d="M482 172v-172h-83v-71h-83v76q-86 16 -142 86.5t-56 158.5t56 159t142 87v79h83v-75h83v-172h-67q-95 0 -95 -78t95 -78h67z" />
    <glyph glyph-name="sterling" unicode="&#xa3;" 
d="M103 274h-98v152h98v43q0 112 70 177.5t185 65.5q38 0 81.5 -6t51.5 -6v-197q-11 1 -38 6t-42 5q-52 0 -70 -16.5t-20 -71.5h100v-152h-100q-2 -65 -33 -86l2 -2q70 0 99 16t32 60h204q-7 -60 -22 -103.5t-46 -81.5t-86.5 -57.5t-135.5 -19.5h-337v186h53q31 0 41 17
t11 71z" />
    <glyph glyph-name="currency" unicode="&#xa4;" 
d="M503 619l69 -69l-57 -57q43 -46 43 -143t-43 -143l57 -57l-69 -69l-59 59q-21 -19 -59 -31t-80 -12t-80 12t-59 31l-59 -59l-69 69l57 57q-43 46 -43 143t43 143l-57 57l69 69l59 -59q21 19 59 31t80 12t80 -12t59 -31zM305 473q-50 0 -81.5 -36t-31.5 -87t31.5 -87
t81.5 -36t81.5 36t31.5 87t-31.5 87t-81.5 36z" />
    <glyph glyph-name="yen" unicode="&#xa5;" 
d="M546 265v-112h-132v-153h-218v153h-132v112h132v57h-132v112h111q-40 68 -151 70v196q124 0 171.5 -14.5t109.5 -81.5q62 67 109.5 81.5t171.5 14.5v-196q-111 -2 -151 -70h111v-112h-132v-57h132z" />
    <glyph glyph-name="brokenbar" unicode="&#xa6;" horiz-adv-x="222" 
d="M44 0v262h134v-262h-134zM44 438v262h134v-262h-134z" />
    <glyph glyph-name="section" unicode="&#xa7;" 
d="M528 701v-190q-2 0 -48.5 6.5t-74.5 6.5q-55 0 -55 -24q0 -14 23 -28.5t55.5 -30.5t64.5 -37t55 -57.5t23 -82.5q0 -53 -20 -88t-65 -70q60 -59 60 -145q0 -39 -14.5 -69.5t-41.5 -49.5t-57 -31.5t-70 -18.5t-72 -8t-70 -2q-22 0 -159 12v197q84 -21 135 -21q65 0 65 25
q0 12 -23 26t-56 30t-65.5 37.5t-55.5 58.5t-23 83q0 96 93 160q-35 28 -51.5 61t-16.5 83q0 83 82.5 130.5t205.5 47.5q85 0 176 -11zM343 233q0 18 -24 37t-42 19q-10 0 -16 -8.5t-6 -17.5q0 -13 24 -33.5t37 -20.5q27 0 27 24z" />
    <glyph glyph-name="dieresis" unicode="&#xa8;" horiz-adv-x="278" 
d="M243 743q35 0 61 -25.5t26 -61.5t-26 -61.5t-61 -25.5t-61 25.5t-26 61.5t26 61.5t61 25.5zM36 743q35 0 61 -25.5t26 -61.5t-26 -61.5t-61 -25.5t-61 25.5t-26 61.5t26 61.5t61 25.5z" />
    <glyph glyph-name="copyright" unicode="&#xa9;" horiz-adv-x="800" 
d="M400 -12q-154 0 -265 98.5t-111 263.5t111 263.5t265 98.5q99 0 183.5 -41.5t138.5 -125.5t54 -195t-54 -195t-138.5 -125.5t-183.5 -41.5zM656 350q0 119 -74.5 193.5t-181.5 74.5q-109 0 -182.5 -74.5t-73.5 -193.5t73.5 -193.5t182.5 -74.5q107 0 181.5 74.5
t74.5 193.5zM496 297h92q-10 -72 -58.5 -112t-114.5 -40q-89 0 -144.5 59.5t-55.5 148.5q0 92 53.5 150.5t144.5 58.5q67 0 113.5 -38.5t57.5 -110.5h-88q-11 59 -83 59q-43 0 -66.5 -31t-23.5 -86q0 -52 25.5 -86t66.5 -34q77 0 81 62z" />
    <glyph glyph-name="ordfeminine" unicode="&#xaa;" horiz-adv-x="367" 
d="M361 405h-132v150q0 20 -13.5 31.5t-33.5 11.5q-19 0 -32.5 -11.5t-13.5 -31.5q0 -19 13 -31t30 -12q4 0 34 6v-117q-27 -3 -45 -3q-67 0 -115 44t-48 104q0 73 49 119.5t120 46.5q80 0 133.5 -47.5t53.5 -143.5v-116z" />
    <glyph glyph-name="guillemotleft" unicode="&#xab;" horiz-adv-x="537" 
d="M397 250l119 -127h-154l-118 127l118 127h154zM175 250l119 -127h-154l-118 127l118 127h154z" />
    <glyph glyph-name="logicalnot" unicode="&#xac;" horiz-adv-x="600" 
d="M416 108v186h-366v134h500v-320h-134z" />
    <glyph glyph-name="uni00AD" unicode="&#xad;" horiz-adv-x="389" 
d="M56 181v138h276v-138h-276z" />
    <glyph glyph-name="registered" unicode="&#xae;" horiz-adv-x="800" 
d="M400 -12q-154 0 -265 98.5t-111 263.5t111 263.5t265 98.5q99 0 183.5 -41.5t138.5 -125.5t54 -195t-54 -195t-138.5 -125.5t-183.5 -41.5zM656 350q0 119 -74.5 193.5t-181.5 74.5q-109 0 -182.5 -74.5t-73.5 -193.5t73.5 -193.5t182.5 -74.5q107 0 181.5 74.5
t74.5 193.5zM342 318v-164h-90v393h147q82 0 123.5 -27t41.5 -93q0 -98 -110 -103l100 -170h-90l-89 164h-33zM342 388h75q27 0 40 10.5t13 38.5q0 40 -73 40h-55v-89z" />
    <glyph glyph-name="macron" unicode="&#xaf;" horiz-adv-x="278" 
d="M-31 594v96h344v-96h-344z" />
    <glyph glyph-name="degree" unicode="&#xb0;" horiz-adv-x="400" 
d="M200 654q-33 0 -57 -25.5t-24 -59.5t24 -59.5t57 -25.5t57 25.5t24 59.5t-24 59.5t-57 25.5zM200 712q60 0 101.5 -41.5t41.5 -101.5t-41.5 -101.5t-101.5 -41.5t-101.5 41.5t-41.5 101.5t41.5 101.5t101.5 41.5z" />
    <glyph glyph-name="plusminus" unicode="&#xb1;" horiz-adv-x="600" 
d="M233 400v100h134v-100h183v-134h-183v-100h-134v100h-183v134h183zM50 0v134h500v-134h-500z" />
    <glyph glyph-name="twosuperior" unicode="&#xb2;" horiz-adv-x="366" 
d="M229 399h125v-114h-281q-25 0 -42.5 13t-17.5 33q0 18 19 40q26 31 74 77t76 76t28 42t-8 20.5t-21 8.5q-14 0 -22 -8.5t-8 -20.5q0 -16 19 -25l-89 -91q-36 31 -52.5 58t-16.5 66q0 63 51.5 100.5t119.5 37.5q75 0 123 -39t48 -107q0 -22 -14.5 -47.5t-30.5 -42
t-43.5 -42t-36.5 -35.5z" />
    <glyph glyph-name="threesuperior" unicode="&#xb3;" horiz-adv-x="366" 
d="M67 518l102 69v2h-140v116h215q37 0 61.5 -20t24.5 -56q0 -12 -5.5 -23.5t-16.5 -22.5t-20 -18t-24.5 -17.5t-20.5 -14.5q45 -10 72 -42t27 -76q0 -65 -48.5 -97.5t-119.5 -32.5h-151v116h137q39 0 39 27t-39 27h-93v63z" />
    <glyph glyph-name="acute" unicode="&#xb4;" horiz-adv-x="278" 
d="M275 730l36 -126l-258 -44l-14 53z" />
    <glyph glyph-name="mu" unicode="&#xb5;" horiz-adv-x="537" 
d="M304 500h200v-300q0 -92 -62 -152t-174 -60q-20 0 -36 3v-192h-200v701h200v-269q0 -32 8.5 -45.5t27.5 -13.5t27.5 13.5t8.5 45.5v269z" />
    <glyph glyph-name="paragraph" unicode="&#xb6;" horiz-adv-x="620" 
d="M241 -191v541q-108 1 -165.5 46t-57.5 126q0 100 64.5 139t181.5 39h314v-891h-120v801h-97v-801h-120z" />
    <glyph glyph-name="periodcentered" unicode="&#xb7;" horiz-adv-x="305" 
d="M152 370q50 0 85 -35t35 -85t-35 -85t-85 -35t-85 35t-35 85t35 85t85 35z" />
    <glyph glyph-name="cedilla" unicode="&#xb8;" horiz-adv-x="278" 
d="M131 -104l-41 23l30 94h69l-10 -35q38 -1 62.5 -28t24.5 -65q0 -47 -35 -74t-83 -27q-29 0 -51 7v73q25 -10 50 -10q16 0 26.5 9t10.5 25q0 10 -7.5 16.5t-17.5 6.5q-15 0 -28 -15z" />
    <glyph glyph-name="onesuperior" unicode="&#xb9;" horiz-adv-x="366" 
d="M67 601v104h194v-420h-142v316h-52z" />
    <glyph glyph-name="ordmasculine" unicode="&#xba;" horiz-adv-x="356" 
d="M178 592q-17 0 -29 -11t-12 -26t12 -26t29 -11t29 11t12 26t-12 26t-29 11zM178 712q71 0 121 -46t50 -111t-50.5 -111t-120.5 -46t-120.5 46t-50.5 111t50 111t121 46z" />
    <glyph glyph-name="guillemotright" unicode="&#xbb;" horiz-adv-x="537" 
d="M362 250l-119 127h154l118 -127l-118 -127h-154zM140 250l-119 127h154l118 -127l-118 -127h-154z" />
    <glyph glyph-name="onequarter" unicode="&#xbc;" horiz-adv-x="916" 
d="M297 -12h-101l371 724h101zM32 601v104h194v-420h-142v316h-52zM817 85v-85h-138v85h-100q-41 0 -59.5 19t-18.5 48q0 19 14 41l143 227h132l-158 -235h60v50l123 185h2v-224h51v-111h-51z" />
    <glyph glyph-name="onehalf" unicode="&#xbd;" horiz-adv-x="916" 
d="M32 601v104h194v-420h-142v316h-52zM744 114h125v-114h-281q-25 0 -42.5 13t-17.5 33q0 18 19 40q26 31 74 77t76 76t28 42t-8 20.5t-21 8.5q-14 0 -22 -8.5t-8 -20.5q0 -16 19 -25l-89 -91q-36 31 -52.5 58t-16.5 66q0 63 51.5 100.5t119.5 37.5q75 0 123 -39t48 -107
q0 -22 -14.5 -47.5t-30.5 -42t-43.5 -42t-36.5 -35.5zM259 -12h-101l400 724h101z" />
    <glyph glyph-name="threequarters" unicode="&#xbe;" horiz-adv-x="916" 
d="M67 518l102 69v2h-140v116h215q37 0 61.5 -20t24.5 -56q0 -12 -5.5 -23.5t-16.5 -22.5t-20 -18t-24.5 -17.5t-20.5 -14.5q45 -10 72 -42t27 -76q0 -65 -48.5 -97.5t-119.5 -32.5h-151v116h137q39 0 39 27t-39 27h-93v63zM312 -12h-101l400 724h101zM817 85v-85h-138v85
h-100q-41 0 -59.5 19t-18.5 48q0 19 14 41l143 227h132l-158 -235h60v50l123 185h2v-224h51v-111h-51z" />
    <glyph glyph-name="questiondown" unicode="&#xbf;" horiz-adv-x="519" 
d="M355 64h-52q-44 0 -61 -9t-17 -31q0 -16 12 -28t29 -12q37 0 54 41l188 -75q-75 -162 -259 -162q-102 0 -170 62t-68 163q0 77 41.5 130.5t116.5 70.5v34h186v-184zM263 276q-49 0 -83.5 34.5t-34.5 83.5t34.5 83.5t83.5 34.5t83.5 -34.5t34.5 -83.5t-34.5 -83.5
t-83.5 -34.5z" />
    <glyph glyph-name="Agrave" unicode="&#xc0;" horiz-adv-x="630" 
d="M297 213v178h67v62q0 26 -14 41.5t-36 15.5t-35.5 -15t-13.5 -42v-453h-218v448q0 40 15 83t44.5 85t84 69t124.5 27q56 0 103 -18t76.5 -46.5t50 -64.5t29 -70t8.5 -65v-448h-218v213h-67zM417 809l-14 -53l-258 44l36 126z" />
    <glyph glyph-name="Aacute" unicode="&#xc1;" horiz-adv-x="630" 
d="M297 213v178h67v62q0 26 -14 41.5t-36 15.5t-35.5 -15t-13.5 -42v-453h-218v448q0 40 15 83t44.5 85t84 69t124.5 27q56 0 103 -18t76.5 -46.5t50 -64.5t29 -70t8.5 -65v-448h-218v213h-67zM451 926l36 -126l-258 -44l-14 53z" />
    <glyph glyph-name="Acircumflex" unicode="&#xc2;" horiz-adv-x="630" 
d="M297 213v178h67v62q0 26 -14 41.5t-36 15.5t-35.5 -15t-13.5 -42v-453h-218v448q0 40 15 83t44.5 85t84 69t124.5 27q56 0 103 -18t76.5 -46.5t50 -64.5t29 -70t8.5 -65v-448h-218v213h-67zM276 754h-119l160 175l162 -175h-119l-44 44z" />
    <glyph glyph-name="Atilde" unicode="&#xc3;" horiz-adv-x="630" 
d="M297 213v178h67v62q0 26 -14 41.5t-36 15.5t-35.5 -15t-13.5 -42v-453h-218v448q0 40 15 83t44.5 85t84 69t124.5 27q56 0 103 -18t76.5 -46.5t50 -64.5t29 -70t8.5 -65v-448h-218v213h-67zM432 900l75 -60q-2 -2 -24 -26t-31.5 -32t-29 -19t-37.5 -11q-30 0 -72.5 19
t-53.5 19q-27 0 -56 -34l-78 59q21 26 32.5 39.5t35.5 28.5t48 15q35 0 81 -19t56 -19q8 0 18 7t22 19z" />
    <glyph glyph-name="Adieresis" unicode="&#xc4;" horiz-adv-x="630" 
d="M297 213v178h67v62q0 26 -14 41.5t-36 15.5t-35.5 -15t-13.5 -42v-453h-218v448q0 40 15 83t44.5 85t84 69t124.5 27q56 0 103 -18t76.5 -46.5t50 -64.5t29 -70t8.5 -65v-448h-218v213h-67zM419 939q35 0 61 -25.5t26 -61.5t-26 -61.5t-61 -25.5t-61 25.5t-26 61.5
t26 61.5t61 25.5zM212 939q35 0 61 -25.5t26 -61.5t-26 -61.5t-61 -25.5t-61 25.5t-26 61.5t26 61.5t61 25.5z" />
    <glyph glyph-name="Aring" unicode="&#xc5;" horiz-adv-x="630" 
d="M297 213v178h67v62q0 26 -14 41.5t-36 15.5t-35.5 -15t-13.5 -42v-453h-218v448q0 40 15 83t44.5 85t84 69t124.5 27q56 0 103 -18t76.5 -46.5t50 -64.5t29 -70t8.5 -65v-448h-218v213h-67zM315 940q42 0 72 -29.5t30 -71.5t-30 -71.5t-72 -29.5t-72 29.5t-30 71.5
t30 71.5t72 29.5zM315 866q-13 0 -20.5 -8t-7.5 -19t7.5 -19t20.5 -8t20.5 8t7.5 19t-7.5 19t-20.5 8z" />
    <glyph glyph-name="AE" unicode="&#xc6;" horiz-adv-x="870" 
d="M270 0h-218v448q0 40 15 83t44.5 85t84 69t124.5 27q104 0 189 -77q52 37 100.5 51t120.5 14h96v-186h-84q-105 0 -140 -80h224v-168h-224q35 -80 140 -80h84v-186l-110 -1q-96 0 -150 35v-34h-196v266h-100v-266zM270 434h99v19q0 26 -14 41.5t-36 15.5t-35.5 -15
t-13.5 -42v-19z" />
    <glyph glyph-name="Ccedilla" unicode="&#xc7;" horiz-adv-x="519" 
d="M486 200v-200h-115h-7l-6 -22q38 -1 62.5 -28t24.5 -65q0 -47 -35 -74t-83 -27q-29 0 -51 7v73q25 -10 50 -10q16 0 26.5 9t10.5 25q0 10 -7.5 16.5t-17.5 6.5q-15 0 -28 -15l-41 23l29 90q-114 26 -189.5 120t-75.5 220q0 149 99.5 250t238.5 101h115v-200h-65
q-69 0 -115.5 -41.5t-46.5 -109.5q0 -67 46.5 -108t115.5 -41h65z" />
    <glyph glyph-name="Egrave" unicode="&#xc8;" horiz-adv-x="537" 
d="M500 434v-168h-224q35 -80 140 -80h84v-186h-110q-64 0 -125 22t-113 63.5t-84 110.5t-32 154t32 154t84 110.5t113 63.5t125 22h110v-186h-84q-105 0 -140 -80h224zM429 809l-14 -53l-258 44l36 126z" />
    <glyph glyph-name="Eacute" unicode="&#xc9;" horiz-adv-x="537" 
d="M500 434v-168h-224q35 -80 140 -80h84v-186h-110q-64 0 -125 22t-113 63.5t-84 110.5t-32 154t32 154t84 110.5t113 63.5t125 22h110v-186h-84q-105 0 -140 -80h224zM463 926l36 -126l-258 -44l-14 53z" />
    <glyph glyph-name="Ecircumflex" unicode="&#xca;" horiz-adv-x="537" 
d="M500 434v-168h-224q35 -80 140 -80h84v-186h-110q-64 0 -125 22t-113 63.5t-84 110.5t-32 154t32 154t84 110.5t113 63.5t125 22h110v-186h-84q-105 0 -140 -80h224zM288 754h-119l160 175l162 -175h-119l-44 44z" />
    <glyph glyph-name="Edieresis" unicode="&#xcb;" horiz-adv-x="537" 
d="M500 434v-168h-224q35 -80 140 -80h84v-186h-110q-64 0 -125 22t-113 63.5t-84 110.5t-32 154t32 154t84 110.5t113 63.5t125 22h110v-186h-84q-105 0 -140 -80h224zM431 939q35 0 61 -25.5t26 -61.5t-26 -61.5t-61 -25.5t-61 25.5t-26 61.5t26 61.5t61 25.5zM224 939
q35 0 61 -25.5t26 -61.5t-26 -61.5t-61 -25.5t-61 25.5t-26 61.5t26 61.5t61 25.5z" />
    <glyph glyph-name="Igrave" unicode="&#xcc;" horiz-adv-x="315" 
d="M266 0h-218v700h218v-700zM260 809l-14 -53l-258 44l36 126z" />
    <glyph glyph-name="Iacute" unicode="&#xcd;" horiz-adv-x="315" 
d="M266 0h-218v700h218v-700zM294 926l36 -126l-258 -44l-14 53z" />
    <glyph glyph-name="Icircumflex" unicode="&#xce;" horiz-adv-x="315" 
d="M266 0h-218v700h218v-700zM119 754h-119l160 175l162 -175h-119l-44 44z" />
    <glyph glyph-name="Idieresis" unicode="&#xcf;" horiz-adv-x="315" 
d="M266 0h-218v700h218v-700zM262 939q35 0 61 -25.5t26 -61.5t-26 -61.5t-61 -25.5t-61 25.5t-26 61.5t26 61.5t61 25.5zM55 939q35 0 61 -25.5t26 -61.5t-26 -61.5t-61 -25.5t-61 25.5t-26 61.5t26 61.5t61 25.5z" />
    <glyph glyph-name="Eth" unicode="&#xd0;" horiz-adv-x="667" 
d="M272 0h-218v272h-48v186h48v242h221q165 0 262 -102t97 -267q0 -129 -91 -230t-239 -101v200q51 4 79.5 44t28.5 106q0 61 -34 105.5t-106 44.5v-42h56v-186h-56v-272z" />
    <glyph glyph-name="Ntilde" unicode="&#xd1;" horiz-adv-x="685" 
d="M272 288v-288h-218v586q0 67 37.5 96.5t80.5 29.5t77 -24.5t50 -56.5l112 -221h2v290h218v-588q0 -67 -37.5 -96.5t-80.5 -29.5t-77 24.5t-50 56.5l-112 221h-2zM460 900l75 -60q-2 -2 -24 -26t-31.5 -32t-29 -19t-37.5 -11q-30 0 -72.5 19t-53.5 19q-27 0 -56 -34
l-78 59q21 26 32.5 39.5t35.5 28.5t48 15q35 0 81 -19t56 -19q8 0 18 7t22 19z" />
    <glyph glyph-name="Ograve" unicode="&#xd2;" horiz-adv-x="796" 
d="M398 490q-58 0 -99 -41t-41 -99t41 -99t99 -41t99 41t41 99t-41 99t-99 41zM398 712q149 0 255.5 -106.5t106.5 -255.5t-106.5 -255.5t-255.5 -106.5t-255.5 106.5t-106.5 255.5t106.5 255.5t255.5 106.5zM500 809l-14 -53l-258 44l36 126z" />
    <glyph glyph-name="Oacute" unicode="&#xd3;" horiz-adv-x="796" 
d="M398 490q-58 0 -99 -41t-41 -99t41 -99t99 -41t99 41t41 99t-41 99t-99 41zM398 712q149 0 255.5 -106.5t106.5 -255.5t-106.5 -255.5t-255.5 -106.5t-255.5 106.5t-106.5 255.5t106.5 255.5t255.5 106.5zM534 926l36 -126l-258 -44l-14 53z" />
    <glyph glyph-name="Ocircumflex" unicode="&#xd4;" horiz-adv-x="796" 
d="M398 490q-58 0 -99 -41t-41 -99t41 -99t99 -41t99 41t41 99t-41 99t-99 41zM398 712q149 0 255.5 -106.5t106.5 -255.5t-106.5 -255.5t-255.5 -106.5t-255.5 106.5t-106.5 255.5t106.5 255.5t255.5 106.5zM359 754h-119l160 175l162 -175h-119l-44 44z" />
    <glyph glyph-name="Otilde" unicode="&#xd5;" horiz-adv-x="796" 
d="M398 490q-58 0 -99 -41t-41 -99t41 -99t99 -41t99 41t41 99t-41 99t-99 41zM398 712q149 0 255.5 -106.5t106.5 -255.5t-106.5 -255.5t-255.5 -106.5t-255.5 106.5t-106.5 255.5t106.5 255.5t255.5 106.5zM515 900l75 -60q-2 -2 -24 -26t-31.5 -32t-29 -19t-37.5 -11
q-30 0 -72.5 19t-53.5 19q-27 0 -56 -34l-78 59q21 26 32.5 39.5t35.5 28.5t48 15q35 0 81 -19t56 -19q8 0 18 7t22 19z" />
    <glyph glyph-name="Odieresis" unicode="&#xd6;" horiz-adv-x="796" 
d="M398 490q-58 0 -99 -41t-41 -99t41 -99t99 -41t99 41t41 99t-41 99t-99 41zM398 712q149 0 255.5 -106.5t106.5 -255.5t-106.5 -255.5t-255.5 -106.5t-255.5 106.5t-106.5 255.5t106.5 255.5t255.5 106.5zM502 939q35 0 61 -25.5t26 -61.5t-26 -61.5t-61 -25.5t-61 25.5
t-26 61.5t26 61.5t61 25.5zM295 939q35 0 61 -25.5t26 -61.5t-26 -61.5t-61 -25.5t-61 25.5t-26 61.5t26 61.5t61 25.5z" />
    <glyph glyph-name="multiply" unicode="&#xd7;" horiz-adv-x="600" 
d="M550 405l-156 -155l156 -155l-95 -95l-155 155l-155 -155l-95 95l156 155l-156 155l95 95l155 -155l155 155z" />
    <glyph glyph-name="Oslash" unicode="&#xd8;" horiz-adv-x="796" 
d="M282 273l136 215q-7 2 -20 2q-58 0 -99 -41t-41 -99q0 -42 24 -77zM706 736l-72 -112q59 -51 92.5 -122.5t33.5 -151.5q0 -149 -106.5 -255.5t-255.5 -106.5q-75 0 -145 31l-41 -65h-134l80 126q-57 50 -89.5 120.5t-32.5 149.5q0 149 106.5 255.5t255.5 106.5
q73 0 140 -28l34 52h134zM510 433l-140 -220q14 -3 28 -3q58 0 99 41t41 99q0 47 -28 83z" />
    <glyph glyph-name="Ugrave" unicode="&#xd9;" horiz-adv-x="630" 
d="M42 700h218v-462q0 -22 12.5 -37t36.5 -15t36.5 15t12.5 37v462h218v-474q0 -105 -79 -171.5t-188 -66.5t-188 66.5t-79 171.5v474zM417 809l-14 -53l-258 44l36 126z" />
    <glyph glyph-name="Uacute" unicode="&#xda;" horiz-adv-x="630" 
d="M42 700h218v-462q0 -22 12.5 -37t36.5 -15t36.5 15t12.5 37v462h218v-474q0 -105 -79 -171.5t-188 -66.5t-188 66.5t-79 171.5v474zM451 926l36 -126l-258 -44l-14 53z" />
    <glyph glyph-name="Ucircumflex" unicode="&#xdb;" horiz-adv-x="630" 
d="M42 700h218v-462q0 -22 12.5 -37t36.5 -15t36.5 15t12.5 37v462h218v-474q0 -105 -79 -171.5t-188 -66.5t-188 66.5t-79 171.5v474zM276 754h-119l160 175l162 -175h-119l-44 44z" />
    <glyph glyph-name="Udieresis" unicode="&#xdc;" horiz-adv-x="630" 
d="M42 700h218v-462q0 -22 12.5 -37t36.5 -15t36.5 15t12.5 37v462h218v-474q0 -105 -79 -171.5t-188 -66.5t-188 66.5t-79 171.5v474zM419 939q35 0 61 -25.5t26 -61.5t-26 -61.5t-61 -25.5t-61 25.5t-26 61.5t26 61.5t61 25.5zM212 939q35 0 61 -25.5t26 -61.5t-26 -61.5
t-61 -25.5t-61 25.5t-26 61.5t26 61.5t61 25.5z" />
    <glyph glyph-name="Yacute" unicode="&#xdd;" horiz-adv-x="556" 
d="M386 0h-216v246q-53 9 -95 52q-49 52 -49 132v270h218v-243q0 -31 34 -31t34 31v243h218v-270q0 -81 -44.5 -128t-99.5 -56v-246zM414 926l36 -126l-258 -44l-14 53z" />
    <glyph glyph-name="Thorn" unicode="&#xde;" horiz-adv-x="574" 
d="M48 0v700h218v-85q19 5 42 5q111 0 185.5 -71t74.5 -176q0 -125 -69.5 -190t-204.5 -65v192q28 0 49.5 12t21.5 37t-12.5 41t-33.5 16q-53 0 -53 -58v-358h-218z" />
    <glyph glyph-name="germandbls" unicode="&#xdf;" horiz-adv-x="722" 
d="M92 330h-55v166h55v23q0 93 63.5 143t180.5 50q93 0 164 -47.5t71 -135.5q0 -47 -41 -99q73 -45 110 -92.5t37 -120.5q0 -56 -22 -99.5t-56.5 -68t-72.5 -37t-75 -12.5h-129v174h14q71 0 101 13t30 42q0 21 -21.5 44t-47 39.5t-47 37.5t-21.5 39q0 12 27.5 54.5
t27.5 64.5q0 18 -15.5 30t-35.5 12q-21 0 -30.5 -14t-9.5 -48v-488h-202v330z" />
    <glyph glyph-name="agrave" unicode="&#xe0;" 
d="M579 0h-202v250q0 32 -22 52t-52 20t-50 -19.5t-20 -52.5q0 -32 19.5 -52t45.5 -20q22 0 52 11v-196q-45 -5 -69 -5q-103 0 -176.5 73t-73.5 174q0 122 75.5 199.5t184.5 77.5q58 0 108.5 -18.5t91.5 -55.5t64.5 -99.5t23.5 -144.5v-194zM408 613l-14 -53l-258 44l36 126
z" />
    <glyph glyph-name="aacute" unicode="&#xe1;" 
d="M579 0h-202v250q0 32 -22 52t-52 20t-50 -19.5t-20 -52.5q0 -32 19.5 -52t45.5 -20q22 0 52 11v-196q-45 -5 -69 -5q-103 0 -176.5 73t-73.5 174q0 122 75.5 199.5t184.5 77.5q58 0 108.5 -18.5t91.5 -55.5t64.5 -99.5t23.5 -144.5v-194zM442 730l36 -126l-258 -44
l-14 53z" />
    <glyph glyph-name="acircumflex" unicode="&#xe2;" 
d="M579 0h-202v250q0 32 -22 52t-52 20t-50 -19.5t-20 -52.5q0 -32 19.5 -52t45.5 -20q22 0 52 11v-196q-45 -5 -69 -5q-103 0 -176.5 73t-73.5 174q0 122 75.5 199.5t184.5 77.5q58 0 108.5 -18.5t91.5 -55.5t64.5 -99.5t23.5 -144.5v-194zM267 558h-119l160 175l162 -175
h-119l-44 44z" />
    <glyph glyph-name="atilde" unicode="&#xe3;" 
d="M579 0h-202v250q0 32 -22 52t-52 20t-50 -19.5t-20 -52.5q0 -32 19.5 -52t45.5 -20q22 0 52 11v-196q-45 -5 -69 -5q-103 0 -176.5 73t-73.5 174q0 122 75.5 199.5t184.5 77.5q58 0 108.5 -18.5t91.5 -55.5t64.5 -99.5t23.5 -144.5v-194zM423 704l75 -60q-2 -2 -24 -26
t-31.5 -32t-29 -19t-37.5 -11q-30 0 -72.5 19t-53.5 19q-27 0 -56 -34l-78 59q21 26 32.5 39.5t35.5 28.5t48 15q35 0 81 -19t56 -19q8 0 18 7t22 19z" />
    <glyph glyph-name="adieresis" unicode="&#xe4;" 
d="M579 0h-202v250q0 32 -22 52t-52 20t-50 -19.5t-20 -52.5q0 -32 19.5 -52t45.5 -20q22 0 52 11v-196q-45 -5 -69 -5q-103 0 -176.5 73t-73.5 174q0 122 75.5 199.5t184.5 77.5q58 0 108.5 -18.5t91.5 -55.5t64.5 -99.5t23.5 -144.5v-194zM410 743q35 0 61 -25.5t26 -61.5
t-26 -61.5t-61 -25.5t-61 25.5t-26 61.5t26 61.5t61 25.5zM203 743q35 0 61 -25.5t26 -61.5t-26 -61.5t-61 -25.5t-61 25.5t-26 61.5t26 61.5t61 25.5z" />
    <glyph glyph-name="aring" unicode="&#xe5;" 
d="M579 0h-202v250q0 32 -22 52t-52 20t-50 -19.5t-20 -52.5q0 -32 19.5 -52t45.5 -20q22 0 52 11v-196q-45 -5 -69 -5q-103 0 -176.5 73t-73.5 174q0 122 75.5 199.5t184.5 77.5q58 0 108.5 -18.5t91.5 -55.5t64.5 -99.5t23.5 -144.5v-194zM306 744q42 0 72 -29.5t30 -71.5
t-30 -71.5t-72 -29.5t-72 29.5t-30 71.5t30 71.5t72 29.5zM306 670q-13 0 -20.5 -8t-7.5 -19t7.5 -19t20.5 -8t20.5 8t7.5 19t-7.5 19t-20.5 8z" />
    <glyph glyph-name="ae" unicode="&#xe6;" horiz-adv-x="889" 
d="M346 234l-92 -35q-22 -8 -22 -28q0 -29 42 -29q34 0 53 27.5t19 64.5zM146 322l-109 122q103 68 229 68q90 0 164 -54q70 54 163 54q100 0 167 -52.5t93 -141.5l-248 -137l-57 101l99 55q-28 23 -63 23q-26 0 -49 -30.5t-23 -63.5q0 -49 26.5 -80.5t74.5 -31.5
q39 0 67.5 17t59.5 50l113 -114q-112 -119 -260 -119q-102 0 -176 64q-80 -64 -168 -64q-56 0 -101 12t-78.5 48t-33.5 93q0 98 109 137l162 57q-27 21 -57 21q-49 0 -104 -34z" />
    <glyph glyph-name="ccedilla" unicode="&#xe7;" horiz-adv-x="426" 
d="M395 172v-172h-113l-6 -22q38 -1 62.5 -28t24.5 -65q0 -47 -35 -74t-83 -27q-29 0 -51 7v73q25 -10 50 -10q16 0 26.5 9t10.5 25q0 10 -7.5 16.5t-17.5 6.5q-15 0 -28 -15l-41 23l28 88q-81 21 -133 90.5t-52 152.5q0 100 70.5 175t172.5 75h122v-172h-67q-96 0 -96 -78
t96 -78h67z" />
    <glyph glyph-name="egrave" unicode="&#xe8;" horiz-adv-x="593" 
d="M558 318l-249 -137l-57 101l100 55q-26 21 -63 21q-24 0 -48 -30t-24 -62q0 -49 26 -80.5t74 -31.5q65 0 128 67l113 -114q-48 -54 -116.5 -86.5t-143.5 -32.5q-115 0 -189 76t-74 193q0 107 77.5 181t175.5 74q106 0 174.5 -52.5t95.5 -141.5zM399 613l-14 -53l-258 44
l36 126z" />
    <glyph glyph-name="eacute" unicode="&#xe9;" horiz-adv-x="593" 
d="M558 318l-249 -137l-57 101l100 55q-26 21 -63 21q-24 0 -48 -30t-24 -62q0 -49 26 -80.5t74 -31.5q65 0 128 67l113 -114q-48 -54 -116.5 -86.5t-143.5 -32.5q-115 0 -189 76t-74 193q0 107 77.5 181t175.5 74q106 0 174.5 -52.5t95.5 -141.5zM433 730l36 -126l-258 -44
l-14 53z" />
    <glyph glyph-name="ecircumflex" unicode="&#xea;" horiz-adv-x="593" 
d="M558 318l-249 -137l-57 101l100 55q-26 21 -63 21q-24 0 -48 -30t-24 -62q0 -49 26 -80.5t74 -31.5q65 0 128 67l113 -114q-48 -54 -116.5 -86.5t-143.5 -32.5q-115 0 -189 76t-74 193q0 107 77.5 181t175.5 74q106 0 174.5 -52.5t95.5 -141.5zM258 558h-119l160 175
l162 -175h-119l-44 44z" />
    <glyph glyph-name="edieresis" unicode="&#xeb;" horiz-adv-x="593" 
d="M558 318l-249 -137l-57 101l100 55q-26 21 -63 21q-24 0 -48 -30t-24 -62q0 -49 26 -80.5t74 -31.5q65 0 128 67l113 -114q-48 -54 -116.5 -86.5t-143.5 -32.5q-115 0 -189 76t-74 193q0 107 77.5 181t175.5 74q106 0 174.5 -52.5t95.5 -141.5zM401 743q35 0 61 -25.5
t26 -61.5t-26 -61.5t-61 -25.5t-61 25.5t-26 61.5t26 61.5t61 25.5zM194 743q35 0 61 -25.5t26 -61.5t-26 -61.5t-61 -25.5t-61 25.5t-26 61.5t26 61.5t61 25.5z" />
    <glyph glyph-name="igrave" unicode="&#xec;" horiz-adv-x="278" 
d="M239 0h-200v500h200v-500zM241 613l-14 -53l-258 44l36 126z" />
    <glyph glyph-name="iacute" unicode="&#xed;" horiz-adv-x="278" 
d="M239 0h-200v500h200v-500zM275 730l36 -126l-258 -44l-14 53z" />
    <glyph glyph-name="icircumflex" unicode="&#xee;" horiz-adv-x="278" 
d="M239 0h-200v500h200v-500zM100 558h-119l160 175l162 -175h-119l-44 44z" />
    <glyph glyph-name="idieresis" unicode="&#xef;" horiz-adv-x="278" 
d="M239 0h-200v500h200v-500zM243 743q35 0 61 -25.5t26 -61.5t-26 -61.5t-61 -25.5t-61 25.5t-26 61.5t26 61.5t61 25.5zM36 743q35 0 61 -25.5t26 -61.5t-26 -61.5t-61 -25.5t-61 25.5t-26 61.5t26 61.5t61 25.5z" />
    <glyph glyph-name="eth" unicode="&#xf0;" horiz-adv-x="593" 
d="M411 598q148 -157 148 -338q0 -115 -77 -193.5t-186 -78.5q-107 0 -185 74t-78 169q0 94 61.5 155t158.5 73q37 -71 63 -149q-9 4 -20 4q-26 0 -45.5 -19t-19.5 -45q0 -25 19.5 -44.5t45.5 -19.5q27 0 46 21t19 51q0 136 -103 270l-95 -43l-34 68l79 36q-31 35 -66 67
l148 44q28 -17 62 -46l100 46l34 -68z" />
    <glyph glyph-name="ntilde" unicode="&#xf1;" horiz-adv-x="537" 
d="M232 0h-200v300q0 92 62 152t174 60t174 -60t62 -152v-300h-200v269q0 32 -8.5 45.5t-27.5 13.5t-27.5 -13.5t-8.5 -45.5v-269zM386 704l75 -60q-2 -2 -24 -26t-31.5 -32t-29 -19t-37.5 -11q-30 0 -72.5 19t-53.5 19q-27 0 -56 -34l-78 59q21 26 32.5 39.5t35.5 28.5
t48 15q35 0 81 -19t56 -19q8 0 18 7t22 19z" />
    <glyph glyph-name="ograve" unicode="&#xf2;" horiz-adv-x="593" 
d="M296 314q-26 0 -45.5 -19t-19.5 -45t19.5 -45t45.5 -19t45.5 19t19.5 45t-19.5 45t-45.5 19zM296 512q108 0 185.5 -77t77.5 -185t-77.5 -185t-185.5 -77q-109 0 -186 77t-77 185q0 109 77 185.5t186 76.5zM399 613l-14 -53l-258 44l36 126z" />
    <glyph glyph-name="oacute" unicode="&#xf3;" horiz-adv-x="593" 
d="M296 314q-26 0 -45.5 -19t-19.5 -45t19.5 -45t45.5 -19t45.5 19t19.5 45t-19.5 45t-45.5 19zM296 512q108 0 185.5 -77t77.5 -185t-77.5 -185t-185.5 -77q-109 0 -186 77t-77 185q0 109 77 185.5t186 76.5zM433 730l36 -126l-258 -44l-14 53z" />
    <glyph glyph-name="ocircumflex" unicode="&#xf4;" horiz-adv-x="593" 
d="M296 314q-26 0 -45.5 -19t-19.5 -45t19.5 -45t45.5 -19t45.5 19t19.5 45t-19.5 45t-45.5 19zM296 512q108 0 185.5 -77t77.5 -185t-77.5 -185t-185.5 -77q-109 0 -186 77t-77 185q0 109 77 185.5t186 76.5zM258 558h-119l160 175l162 -175h-119l-44 44z" />
    <glyph glyph-name="otilde" unicode="&#xf5;" horiz-adv-x="593" 
d="M296 314q-26 0 -45.5 -19t-19.5 -45t19.5 -45t45.5 -19t45.5 19t19.5 45t-19.5 45t-45.5 19zM296 512q108 0 185.5 -77t77.5 -185t-77.5 -185t-185.5 -77q-109 0 -186 77t-77 185q0 109 77 185.5t186 76.5zM414 704l75 -60q-2 -2 -24 -26t-31.5 -32t-29 -19t-37.5 -11
q-30 0 -72.5 19t-53.5 19q-27 0 -56 -34l-78 59q21 26 32.5 39.5t35.5 28.5t48 15q35 0 81 -19t56 -19q8 0 18 7t22 19z" />
    <glyph glyph-name="odieresis" unicode="&#xf6;" horiz-adv-x="593" 
d="M296 314q-26 0 -45.5 -19t-19.5 -45t19.5 -45t45.5 -19t45.5 19t19.5 45t-19.5 45t-45.5 19zM296 512q108 0 185.5 -77t77.5 -185t-77.5 -185t-185.5 -77q-109 0 -186 77t-77 185q0 109 77 185.5t186 76.5zM401 743q35 0 61 -25.5t26 -61.5t-26 -61.5t-61 -25.5t-61 25.5
t-26 61.5t26 61.5t61 25.5zM194 743q35 0 61 -25.5t26 -61.5t-26 -61.5t-61 -25.5t-61 25.5t-26 61.5t26 61.5t61 25.5z" />
    <glyph glyph-name="divide" unicode="&#xf7;" horiz-adv-x="600" 
d="M550 178h-500v134h500v-134zM301 541q36 0 63.5 -27t27.5 -64t-27.5 -64t-63.5 -27t-63.5 27t-27.5 64t27.5 64t63.5 27zM301 131q36 0 63.5 -27t27.5 -64t-27.5 -64t-63.5 -27t-63.5 27t-27.5 64t27.5 64t63.5 27z" />
    <glyph glyph-name="oslash" unicode="&#xf8;" horiz-adv-x="593" 
d="M296 314q-26 0 -45.5 -19t-19.5 -45t19.5 -45t45.5 -19t45.5 19t19.5 45t-19.5 45t-45.5 19zM422 556h125l-72 -115q84 -76 84 -191q0 -108 -77.5 -185t-185.5 -77q-49 0 -88 16l-41 -66h-125l75 121q-84 78 -84 191q0 109 77 185.5t186 76.5q46 0 91 -17z" />
    <glyph glyph-name="ugrave" unicode="&#xf9;" horiz-adv-x="537" 
d="M304 500h200v-300q0 -92 -62 -152t-174 -60t-174 60t-62 152v300h200v-269q0 -32 8.5 -45.5t27.5 -13.5t27.5 13.5t8.5 45.5v269zM371 613l-14 -53l-258 44l36 126z" />
    <glyph glyph-name="uacute" unicode="&#xfa;" horiz-adv-x="537" 
d="M304 500h200v-300q0 -92 -62 -152t-174 -60t-174 60t-62 152v300h200v-269q0 -32 8.5 -45.5t27.5 -13.5t27.5 13.5t8.5 45.5v269zM405 730l36 -126l-258 -44l-14 53z" />
    <glyph glyph-name="ucircumflex" unicode="&#xfb;" horiz-adv-x="537" 
d="M304 500h200v-300q0 -92 -62 -152t-174 -60t-174 60t-62 152v300h200v-269q0 -32 8.5 -45.5t27.5 -13.5t27.5 13.5t8.5 45.5v269zM230 558h-119l160 175l162 -175h-119l-44 44z" />
    <glyph glyph-name="udieresis" unicode="&#xfc;" horiz-adv-x="537" 
d="M304 500h200v-300q0 -92 -62 -152t-174 -60t-174 60t-62 152v300h200v-269q0 -32 8.5 -45.5t27.5 -13.5t27.5 13.5t8.5 45.5v269zM373 743q35 0 61 -25.5t26 -61.5t-26 -61.5t-61 -25.5t-61 25.5t-26 61.5t26 61.5t61 25.5zM166 743q35 0 61 -25.5t26 -61.5t-26 -61.5
t-61 -25.5t-61 25.5t-26 61.5t26 61.5t61 25.5z" />
    <glyph glyph-name="yacute" unicode="&#xfd;" horiz-adv-x="537" 
d="M363 -201h-194v199q-63 31 -97 77q-39 51 -39 116v309h199v-269q0 -59 36 -59t36 59v269h199v-301q0 -69 -35.5 -122.5t-104.5 -78.5v-199zM405 730l36 -126l-258 -44l-14 53z" />
    <glyph glyph-name="thorn" unicode="&#xfe;" 
d="M238 -201h-200v901h202v-197q12 3 36 7q24 2 37 2q109 0 184 -75t75 -193q0 -110 -67.5 -183t-176.5 -73q-40 0 -68 4v197q29 -11 49 -11q28 0 50.5 20t22.5 52t-20.5 52t-49.5 20q-33 0 -53.5 -22.5t-20.5 -65.5v-435z" />
    <glyph glyph-name="ydieresis" unicode="&#xff;" horiz-adv-x="537" 
d="M363 -201h-194v199q-63 31 -97 77q-39 51 -39 116v309h199v-269q0 -59 36 -59t36 59v269h199v-301q0 -69 -35.5 -122.5t-104.5 -78.5v-199zM373 743q35 0 61 -25.5t26 -61.5t-26 -61.5t-61 -25.5t-61 25.5t-26 61.5t26 61.5t61 25.5zM166 743q35 0 61 -25.5t26 -61.5
t-26 -61.5t-61 -25.5t-61 25.5t-26 61.5t26 61.5t61 25.5z" />
    <glyph glyph-name="dotlessi" unicode="&#x131;" horiz-adv-x="278" 
d="M239 0h-200v500h200v-500z" />
    <glyph glyph-name="Lslash" unicode="&#x141;" horiz-adv-x="444" 
d="M267 336v-68q0 -44 23.5 -56t117.5 -12h41v-200h-192q-91 0 -149.5 57.5t-58.5 148.5v84l-48 -10v184l48 11v225h218v-177l79 17v-187z" />
    <glyph glyph-name="lslash" unicode="&#x142;" horiz-adv-x="278" 
d="M239 296v-296h-200v253l-39 -9v184l39 9v263h200v-217l39 9v-188z" />
    <glyph glyph-name="OE" unicode="&#x152;" horiz-adv-x="1019" 
d="M974 434v-168h-224q35 -80 140 -80h84v-186h-98q-139 0 -233 76q-108 -88 -236 -88q-149 0 -255.5 106.5t-106.5 255.5t106.5 255.5t255.5 106.5q66 0 129.5 -23.5t102.5 -62.5q39 34 102.5 54t122.5 20h110v-186h-84q-105 0 -140 -80h224zM407 490q-58 0 -99 -41
t-41 -99t41 -99t99 -41t99 41t41 99t-41 99t-99 41z" />
    <glyph glyph-name="oe" unicode="&#x153;" horiz-adv-x="926" 
d="M289 314q-26 0 -45.5 -19t-19.5 -45t19.5 -45t45.5 -19t45.5 19t19.5 45t-19.5 45t-45.5 19zM767 221l113 -114q-114 -119 -261 -119q-95 0 -165 56q-70 -56 -165 -56q-109 0 -186 77t-77 185q0 109 77 185.5t186 76.5q92 0 166 -57q68 57 155 57q106 0 174.5 -52.5
t95.5 -141.5l-249 -137l-57 101l99 55q-26 23 -62 23q-26 0 -50.5 -31t-24.5 -63q0 -47 29 -79.5t74 -32.5q38 0 66.5 17t61.5 50z" />
    <glyph glyph-name="Scaron" unicode="&#x160;" horiz-adv-x="500" 
d="M23 200h133q48 0 64.5 6.5t16.5 26.5q0 12 -22 31.5t-53 43t-62 52t-53 68t-22 80.5q0 53 19 92t53 60t74.5 30.5t89.5 9.5h200v-196h-133q-37 0 -50 -5.5t-13 -19.5q0 -12 23 -30.5t56 -42.5t66 -53.5t56 -71.5t23 -87q0 -87 -67 -140.5t-188 -53.5h-211v200zM441 930
l-190 -176l-188 176h129l60 -60l58 60h131z" />
    <glyph glyph-name="scaron" unicode="&#x161;" horiz-adv-x="444" 
d="M396 500v-160h-116q-6 0 -12 -4t-6 -10q0 -9 15.5 -19t37.5 -22.5t44.5 -29t38 -47t15.5 -69.5q0 -66 -46 -102.5t-130 -36.5h-207v168h120q39 0 39 19q0 10 -16 20t-39.5 21t-46.5 26.5t-39 44.5t-16 68q0 60 47.5 96.5t109.5 36.5h207zM413 734l-190 -176l-188 176h129
l60 -60l58 60h131z" />
    <glyph glyph-name="Ydieresis" unicode="&#x178;" horiz-adv-x="556" 
d="M386 0h-216v246q-53 9 -95 52q-49 52 -49 132v270h218v-243q0 -31 34 -31t34 31v243h218v-270q0 -81 -44.5 -128t-99.5 -56v-246zM382 939q35 0 61 -25.5t26 -61.5t-26 -61.5t-61 -25.5t-61 25.5t-26 61.5t26 61.5t61 25.5zM175 939q35 0 61 -25.5t26 -61.5t-26 -61.5
t-61 -25.5t-61 25.5t-26 61.5t26 61.5t61 25.5z" />
    <glyph glyph-name="Zcaron" unicode="&#x17d;" horiz-adv-x="537" 
d="M528 200v-200h-369q-64 0 -107.5 33.5t-43.5 105.5q0 28 8 50t35 55l215 256h-222v200h333q64 0 107.5 -33.5t43.5 -105.5q0 -27 -8 -49t-35 -56l-205 -256h248zM460 930l-190 -176l-188 176h129l60 -60l58 60h131z" />
    <glyph glyph-name="zcaron" unicode="&#x17e;" horiz-adv-x="519" 
d="M488 168v-168h-311q-76 0 -112.5 22t-36.5 80q0 48 44 89l152 141h-161v168h287q64 0 102.5 -25.5t38.5 -74.5q0 -35 -10.5 -55.5t-47.5 -54.5l-130 -122h185zM451 734l-190 -176l-188 176h129l60 -60l58 60h131z" />
    <glyph glyph-name="florin" unicode="&#x192;" 
d="M27 -201l13 167q33 -12 69 -12q31 0 44 15t15 51l18 251h-100l12 152h103l14 126q9 78 66 120.5t141 42.5q35 0 127 -18l-13 -167q-43 13 -64 13q-38 0 -53 -30.5t-16 -86.5h99l-11 -152h-101l-27 -335q-4 -54 -41.5 -90t-84 -50t-98.5 -14q-25 0 -112 17z" />
    <glyph glyph-name="circumflex" unicode="&#x2c6;" horiz-adv-x="278" 
d="M100 558h-119l160 175l162 -175h-119l-44 44z" />
    <glyph glyph-name="caron" unicode="&#x2c7;" horiz-adv-x="278" 
d="M330 734l-190 -176l-188 176h129l60 -60l58 60h131z" />
    <glyph glyph-name="uni02C9" unicode="&#x2c9;" horiz-adv-x="278" 
d="M-31 594v96h344v-96h-344z" />
    <glyph glyph-name="breve" unicode="&#x2d8;" horiz-adv-x="278" 
d="M-33 712h90q2 -36 24 -57q23 -23 57 -23q76 0 87 80h90q-2 -73 -53 -122.5t-124 -49.5q-75 0 -120.5 48t-50.5 124z" />
    <glyph glyph-name="dotaccent" unicode="&#x2d9;" horiz-adv-x="278" 
d="M139 743q35 0 61 -25.5t26 -61.5t-26 -61.5t-61 -25.5t-61 25.5t-26 61.5t26 61.5t61 25.5z" />
    <glyph glyph-name="ring" unicode="&#x2da;" horiz-adv-x="278" 
d="M139 744q42 0 72 -29.5t30 -71.5t-30 -71.5t-72 -29.5t-72 29.5t-30 71.5t30 71.5t72 29.5zM139 670q-13 0 -20.5 -8t-7.5 -19t7.5 -19t20.5 -8t20.5 8t7.5 19t-7.5 19t-20.5 8z" />
    <glyph glyph-name="ogonek" unicode="&#x2db;" horiz-adv-x="278" 
d="M165 -148v-61q-29 -9 -73 -9q-46 0 -70.5 23.5t-24.5 60.5q0 41 51 78.5t148 51.5v-18q-109 -36 -109 -98q0 -13 10.5 -22.5t28.5 -9.5q23 0 39 4z" />
    <glyph glyph-name="tilde" unicode="&#x2dc;" horiz-adv-x="278" 
d="M256 704l75 -60q-2 -2 -24 -26t-31.5 -32t-29 -19t-37.5 -11q-30 0 -72.5 19t-53.5 19q-27 0 -56 -34l-78 59q21 26 32.5 39.5t35.5 28.5t48 15q35 0 81 -19t56 -19q8 0 18 7t22 19z" />
    <glyph glyph-name="hungarumlaut" unicode="&#x2dd;" horiz-adv-x="278" 
d="M97 799l77 -107l-227 -129l-31 45zM326 782l67 -113l-237 -109l-27 48z" />
    <glyph glyph-name="uni03A9" unicode="&#x3a9;" horiz-adv-x="764" 
d="M162 153v3q-119 102 -119 245q0 124 93.5 216t246.5 92q80 0 146 -28t106 -73t61.5 -97t21.5 -104q0 -146 -122 -251v-3h136v-153h-322v115q107 67 107 250q0 85 -36 136t-98 51q-61 0 -100 -52.5t-39 -141.5q0 -94 29.5 -156.5t78.5 -86.5v-115h-323v153h133z" />
    <glyph glyph-name="uni03BC" unicode="&#x3bc;" horiz-adv-x="537" 
d="M304 500h200v-300q0 -92 -62 -152t-174 -60q-20 0 -36 3v-192h-200v701h200v-269q0 -32 8.5 -45.5t27.5 -13.5t27.5 13.5t8.5 45.5v269z" />
    <glyph glyph-name="pi" unicode="&#x3c0;" horiz-adv-x="683" 
d="M660 370h-63v-211q0 -97 12 -159h-193q-19 32 -19 151v219h-95q-2 -81 -17 -191t-38 -179h-193q23 91 38.5 198.5t14.5 171.5q-61 0 -90 -7l-18 125q41 41 199 41h476z" />
    <glyph glyph-name="endash" unicode="&#x2013;" horiz-adv-x="500" 
d="M500 181h-500v138h500v-138z" />
    <glyph glyph-name="emdash" unicode="&#x2014;" horiz-adv-x="1000" 
d="M0 181v138h1000v-138h-1000z" />
    <glyph glyph-name="quoteleft" unicode="&#x2018;" horiz-adv-x="315" 
d="M251 700l-51 -236h-157l96 236h112z" />
    <glyph glyph-name="quoteright" unicode="&#x2019;" horiz-adv-x="315" 
d="M64 464l51 236h157l-96 -236h-112z" />
    <glyph glyph-name="quotesinglbase" unicode="&#x201a;" horiz-adv-x="315" 
d="M252 164l-66 -236h-112l20 236h158z" />
    <glyph glyph-name="quotedblleft" unicode="&#x201c;" horiz-adv-x="444" 
d="M223 464l66 236h112l-20 -236h-158zM30 464l66 236h112l-20 -236h-158z" />
    <glyph glyph-name="quotedblright" unicode="&#x201d;" horiz-adv-x="444" 
d="M221 700l-66 -236h-112l20 236h158zM414 700l-66 -236h-112l20 236h158z" />
    <glyph glyph-name="quotedblbase" unicode="&#x201e;" horiz-adv-x="444" 
d="M218 164l-66 -236h-112l20 236h158zM411 164l-66 -236h-112l20 236h158z" />
    <glyph glyph-name="dagger" unicode="&#x2020;" horiz-adv-x="500" 
d="M33 284v220l152 -42l-60 238h250l-60 -238l152 42v-220l-152 38l37 -86q-19 -60 -26.5 -87t-13 -67.5t-5.5 -91.5q0 -97 3 -194h-121q4 130 4 194q0 73 -9.5 117.5t-36.5 128.5l38 86z" />
    <glyph glyph-name="daggerdbl" unicode="&#x2021;" horiz-adv-x="500" 
d="M471 521v-201l-162 41q10 -54 37 -113q-27 -59 -37 -113l162 41v-201l-162 41l57 -220h-230l57 220l-162 -41v201l162 -41q-10 54 -37 113q27 59 37 113l-162 -41v201l162 -41l-57 220h230l-57 -220z" />
    <glyph glyph-name="bullet" unicode="&#x2022;" horiz-adv-x="500" 
d="M250 525q73 0 124 -51t51 -124t-51 -124t-124 -51t-124 51t-51 124t51 124t124 51z" />
    <glyph glyph-name="ellipsis" unicode="&#x2026;" horiz-adv-x="1000" 
d="M167 228q50 0 85 -35t35 -85t-35 -85t-85 -35t-85 35t-35 85t35 85t85 35zM500 228q50 0 85 -35t35 -85t-35 -85t-85 -35t-85 35t-35 85t35 85t85 35zM833 228q50 0 85 -35t35 -85t-35 -85t-85 -35t-85 35t-35 85t35 85t85 35z" />
    <glyph glyph-name="perthousand" unicode="&#x2030;" horiz-adv-x="1167" 
d="M967 214q-19 0 -34 -14.5t-15 -33.5t15 -33.5t34 -14.5t34 14.5t15 33.5t-15 33.5t-34 14.5zM93 -12l477 724h104l-481 -724h-100zM200 582q-19 0 -34 -14.5t-15 -33.5t15 -33.5t34 -14.5t34 14.5t15 33.5t-15 33.5t-34 14.5zM967 344q74 0 126.5 -52t52.5 -126
t-52.5 -126t-126.5 -52t-126.5 52t-52.5 126t52.5 126t126.5 52zM200 712q74 0 126.5 -52t52.5 -126t-52.5 -126t-126.5 -52t-126.5 52t-52.5 126t52.5 126t126.5 52zM572 344q74 0 126.5 -52t52.5 -126t-52.5 -126t-126.5 -52t-126.5 52t-52.5 126t52.5 126t126.5 52z
M572 214q-19 0 -34 -14.5t-15 -33.5t15 -33.5t34 -14.5t34 14.5t15 33.5t-15 33.5t-34 14.5z" />
    <glyph glyph-name="guilsinglleft" unicode="&#x2039;" horiz-adv-x="315" 
d="M175 250l119 -127h-154l-118 127l118 127h154z" />
    <glyph glyph-name="guilsinglright" unicode="&#x203a;" horiz-adv-x="315" 
d="M140 250l-119 127h154l118 -127l-118 -127h-154z" />
    <glyph glyph-name="fraction" unicode="&#x2044;" horiz-adv-x="167" 
d="M-66 -12h-101l400 724h101z" />
    <glyph glyph-name="Euro" unicode="&#x20ac;" 
d="M496 239h-131q48 -59 136 -59h65v-180h-115q-110 0 -198.5 66t-122.5 173h-81v95h64v15q0 17 1 25h-65v95h84q35 104 122.5 167.5t195.5 63.5h115v-180h-65q-78 0 -126 -51h121v-95h-165q-2 -16 -2 -25q0 -3 0.5 -8t0.5 -7h166v-95z" />
    <glyph glyph-name="afii61289" unicode="&#x2113;" horiz-adv-x="597" 
d="M502 230l77 -82q-85 -158 -255 -158t-209 139q0 5 -1 8q-8 -5 -23 -15.5t-23 -15.5l-48 98q5 4 39.5 28.5t51.5 38.5v213q0 136 59 209t162 73q87 0 131.5 -55t44.5 -141q0 -82 -51 -159.5t-155 -167.5l1 -41q3 -23 21.5 -39.5t48.5 -16.5q66 0 129 84zM302 501v-91
q37 42 58 89t21 79q0 56 -36 56q-43 0 -43 -133z" />
    <glyph glyph-name="trademark" unicode="&#x2122;" horiz-adv-x="1000" 
d="M380 700v-90h-112v-322h-120v322h-112v90h344zM630 700l89 -238l89 238h156v-412h-108v270h-2l-91 -270h-88l-91 270h-2v-270h-108v412h156z" />
    <glyph glyph-name="Omega" unicode="&#x2126;" horiz-adv-x="764" 
d="M162 153v3q-119 102 -119 245q0 124 93.5 216t246.5 92q80 0 146 -28t106 -73t61.5 -97t21.5 -104q0 -146 -122 -251v-3h136v-153h-322v115q107 67 107 250q0 85 -36 136t-98 51q-61 0 -100 -52.5t-39 -141.5q0 -94 29.5 -156.5t78.5 -86.5v-115h-323v153h133z" />
    <glyph glyph-name="estimated" unicode="&#x212e;" horiz-adv-x="873" 
d="M838 340h-651q-5 0 -5 -4v-197q0 -13 8 -23q104 -107 246 -107q155 0 260 120h57q-54 -65 -138 -102.5t-180 -37.5q-166 0 -283.5 105.5t-117.5 254.5q0 151 117.5 257t283.5 106q167 0 285 -106t118 -257v-9zM690 366v198q0 14 -9 23q-106 103 -245 103
q-141 0 -245 -106q-9 -9 -9 -25v-193q0 -7 5 -7h499q4 0 4 7z" />
    <glyph glyph-name="partialdiff" unicode="&#x2202;" horiz-adv-x="648" 
d="M108 591l-52 139q95 63 221 63q141 0 234 -104.5t93 -282.5q0 -194 -90.5 -304t-239.5 -110q-59 0 -107.5 24t-77 61.5t-44 79t-15.5 80.5q0 119 65.5 193.5t171.5 74.5q52 0 89 -22t54 -46h1v19q0 66 -42.5 123t-119.5 57q-75 0 -141 -45zM295 149h2q37 0 63.5 47
t33.5 98q-4 19 -26.5 40t-55.5 21q-40 0 -63 -37t-23 -88q0 -34 19.5 -57.5t49.5 -23.5z" />
    <glyph glyph-name="Delta" unicode="&#x2206;" horiz-adv-x="718" 
d="M21 0v100l222 609h239l212 -606v-103h-673zM230 153h246l-77 210q-6 21 -23 79.5t-22 80.5h-3q-4 -16 -19.5 -68.5t-22.5 -79.5z" />
    <glyph glyph-name="product" unicode="&#x220f;" horiz-adv-x="791" 
d="M770 527h-102v-623h-194v623h-157v-623h-195v623h-101v170h749v-170z" />
    <glyph glyph-name="summation" unicode="&#x2211;" horiz-adv-x="607" 
d="M593 -96h-570v115l225 281l-217 266v131h541v-162h-277v-3l174 -203l-199 -249v-4h323v-172z" />
    <glyph glyph-name="minus" unicode="&#x2212;" horiz-adv-x="600" 
d="M550 183h-500v134h500v-134z" />
    <glyph glyph-name="uni2215" unicode="&#x2215;" horiz-adv-x="167" 
d="M-66 -12h-101l400 724h101z" />
    <glyph glyph-name="uni2219" unicode="&#x2219;" horiz-adv-x="305" 
d="M152 370q50 0 85 -35t35 -85t-35 -85t-85 -35t-85 35t-35 85t35 85t85 35z" />
    <glyph glyph-name="radical" unicode="&#x221a;" horiz-adv-x="659" 
d="M683 842l-248 -977h-149l-151 410l-77 -31l-30 99l220 91l88 -268q5 -22 15 -58.5t11 -40.5l1 -1q1 6 8 45.5t12 64.5l166 666h134z" />
    <glyph glyph-name="infinity" unicode="&#x221e;" horiz-adv-x="799" 
d="M753 288v-1q0 -89 -52.5 -141t-122.5 -52q-48 0 -91.5 21.5t-87.5 87.5q-41 -55 -83 -82t-100 -27q-69 0 -120.5 51.5t-51.5 134.5q0 84 52 137t130 53q56 0 98 -24.5t81 -78.5q1 1 9.5 11.5t11.5 13.5t12.5 13t15 14.5t16 13t18.5 12.5t19.5 10t22.5 8.5t25 4.5t28 2
q70 -1 120 -51t50 -131zM227 191h2q33 0 60.5 22t57.5 63q-42 61 -59 76q-27 22 -62 22q-37 0 -60 -25t-23 -69q0 -36 25 -62.5t59 -26.5zM573 374h-1q-24 0 -49.5 -17t-36.5 -30.5t-33 -42.5q40 -56 66 -74.5t60 -18.5t54.5 28.5t20.5 59.5q0 40 -22 67.5t-59 27.5z" />
    <glyph glyph-name="integral" unicode="&#x222b;" horiz-adv-x="448" 
d="M426 864l-15 -127q-21 7 -38 7q-36 0 -53 -29q-20 -29 -20 -155q0 -81 8.5 -216t8.5 -236q0 -132 -31 -197q-48 -97 -169 -97q-61 0 -95 16l20 131q22 -8 44 -8q31 0 45 18q22 30 22 135q0 103 -9 243.5t-9 229.5q0 91 16.5 146.5t54.5 95.5q50 53 148 53q46 0 72 -10z
" />
    <glyph glyph-name="approxequal" unicode="&#x2248;" horiz-adv-x="568" 
d="M471 480l65 -63q-31 -53 -72 -82.5t-81 -29.5q-52 0 -113 38q-50 33 -82 33q-16 0 -28.5 -4.5t-27.5 -19.5t-18.5 -19.5t-21.5 -26.5l-64 64q25 46 70.5 78t94.5 32q52 0 104 -32q4 -3 12 -8t11 -7t9.5 -6t9.5 -5.5l8 -4t8 -3.5t7.5 -2t9 -1.5t8.5 -0.5q25 0 45.5 17.5
t45.5 52.5zM471 272l65 -64q-31 -52 -72 -82t-82 -30q-51 0 -112 38q-50 33 -82 33q-6 0 -12.5 -1t-11.5 -2.5t-11 -5t-9.5 -5.5t-9.5 -8l-8.5 -8.5t-8.5 -9.5t-8 -9t-8.5 -10.5t-8.5 -10.5l-64 64q25 45 70.5 77.5t94.5 32.5q51 0 103 -31q6 -4 20.5 -13t21.5 -13t18.5 -8
t22.5 -4q27 0 46 16.5t46 53.5z" />
    <glyph glyph-name="notequal" unicode="&#x2260;" horiz-adv-x="568" 
d="M434 525l-33 -76h120v-105h-161l-51 -122h212v-105h-253l-48 -113l-83 34l34 79h-124v105h164l52 122h-216v105h256l47 110z" />
    <glyph glyph-name="lessequal" unicode="&#x2264;" horiz-adv-x="568" 
d="M519 114l-469 222v114l468 222v-119l-364 -159v-2l365 -159v-119zM523 -27h-475v108h475v-108z" />
    <glyph glyph-name="greaterequal" unicode="&#x2265;" horiz-adv-x="568" 
d="M52 672l469 -222v-114l-468 -222v119l364 160v2l-365 158v119zM519 -27h-470v108h470v-108z" />
    <glyph glyph-name="lozenge" unicode="&#x25ca;" horiz-adv-x="658" 
d="M612 348l-210 -400h-153l-203 400l209 400h153zM443 344l-93 196q-16 40 -19 60h-3q-6 -23 -20 -60l-94 -189l95 -201q12 -33 17 -56h4q13 44 18 54z" />
    </font>
</defs>
</svg>
