<?xml version="1.0" standalone="no"?>
<!DOCTYPE svg PUBLIC "-//W3C//DTD SVG 1.1//EN" "http://www.w3.org/Graphics/SVG/1.1/DTD/svg11.dtd" >
<svg xmlns="http://www.w3.org/2000/svg" xmlns:xlink="http://www.w3.org/1999/xlink" version="1.1">
<metadata>
Created by FontForge 20170731 at Thu Feb  7 17:01:14 2002
 By Aleksey,,,
Copyright (c) 1989, 2001 Adobe Systems Incorporated.  All Rights Reserved.
</metadata>
<defs>
<font id="BauhausStd-Bold" horiz-adv-x="556" >
  <font-face 
    font-family="Bauhaus Std Medium"
    font-weight="700"
    font-stretch="normal"
    units-per-em="1000"
    panose-1="0 0 8 0 0 0 0 0 0 0"
    ascent="700"
    descent="-300"
    x-height="486"
    cap-height="700"
    bbox="-167 -226 1000 966"
    underline-thickness="50"
    underline-position="-200"
    unicode-range="U+0020-FB02"
  />
<missing-glyph horiz-adv-x="500" 
d="M0 0v700h500v-700h-500zM250 395l170 255h-340zM280 350l170 -255v510zM80 50h340l-170 255zM50 605v-510l170 255z" />
    <glyph glyph-name="fi" unicode="fi" 
d="M501 486v-486h-160v486h160zM330 621q0 39 26.5 65t64.5 26t64.5 -26t26.5 -65t-26.5 -65t-64.5 -26t-64.5 26t-26.5 65zM195 0h-160v524q0 77 53.5 126.5t142.5 49.5h65v-146h-51q-29 0 -39.5 -15.5t-10.5 -48.5h101v-146h-101v-344z" />
    <glyph glyph-name="fl" unicode="fl" 
d="M501 700v-700h-160v700h160zM195 0h-160v524q0 77 53.5 126.5t142.5 49.5h65v-146h-51q-29 0 -39.5 -15.5t-10.5 -48.5h101v-146h-101v-344z" />
    <glyph glyph-name=".notdef" horiz-adv-x="500" 
d="M0 0v700h500v-700h-500zM250 395l170 255h-340zM280 350l170 -255v510zM80 50h340l-170 255zM50 605v-510l170 255z" />
    <glyph glyph-name=".null" horiz-adv-x="0" 
 />
    <glyph glyph-name="nonmarkingreturn" horiz-adv-x="333" 
 />
    <glyph glyph-name="space" unicode=" " horiz-adv-x="278" 
 />
    <glyph glyph-name="exclam" unicode="!" horiz-adv-x="333" 
d="M72 700h188l-14 -479h-160zM166 -12q-43 0 -72.5 30t-29.5 72t29.5 72t72.5 30t72.5 -30t29.5 -72t-29.5 -72t-72.5 -30z" />
    <glyph glyph-name="quotedbl" unicode="&#x22;" horiz-adv-x="333" 
d="M199 430v270h120v-270h-120zM16 430v270h120v-270h-120z" />
    <glyph glyph-name="numbersign" unicode="#" 
d="M492 291l-4 -94h-86l-27 -197h-100l27 197h-91l-27 -197h-100l28 197h-86l4 94h95l17 118h-86l4 94h94l27 197h100l-27 -197h91l27 197h100l-26 -197h76l-4 -94h-86l-16 -118h76zM332 409h-91l-16 -118h91z" />
    <glyph glyph-name="dollar" unicode="$" 
d="M325 785v-97h107v-134h-168q-9 0 -16.5 -7t-7.5 -17q0 -16 37 -43.5t81 -56t81 -74t37 -93.5q0 -73 -43 -116.5t-108 -54.5v-126h-100v124h-135v138h165q23 0 38 9.5t15 25.5t-35.5 46.5t-78.5 61t-78.5 71.5t-35.5 77q0 74 40.5 116.5t104.5 50.5v99h100z" />
    <glyph glyph-name="percent" unicode="%" horiz-adv-x="889" 
d="M272 0h-106l441 700h107zM668 248q-28 0 -49.5 -21t-21.5 -50t21.5 -50t49.5 -21t49.5 21t21.5 50t-21.5 50t-49.5 21zM213 594q-28 0 -49.5 -21t-21.5 -50t21.5 -50t49.5 -21t49.5 21t21.5 50t-21.5 50t-49.5 21zM668 354q74 0 125.5 -51.5t51.5 -125.5t-51.5 -125.5
t-125.5 -51.5t-125.5 51.5t-51.5 125.5t51.5 125.5t125.5 51.5zM213 700q74 0 125.5 -51.5t51.5 -125.5t-51.5 -125.5t-125.5 -51.5t-125.5 51.5t-51.5 125.5t51.5 125.5t125.5 51.5z" />
    <glyph glyph-name="ampersand" unicode="&#x26;" horiz-adv-x="778" 
d="M542 700v-148h-210l200 -255q14 75 -48 146l119 113q104 -111 104 -225q0 -95 -61 -169l123 -154h-216l-28 37q-80 -57 -189 -57q-123 0 -204.5 84.5t-81.5 197.5q0 70 33.5 129.5t86.5 92.5q-47 49 -47 96q0 59 40.5 85.5t101.5 26.5h277zM425 175l-154 193
q-47 -32 -47 -93q0 -53 34 -89t81 -36q52 0 86 25z" />
    <glyph glyph-name="quotesingle" unicode="'" horiz-adv-x="222" 
d="M51 430v270h120v-270h-120z" />
    <glyph glyph-name="parenleft" unicode="(" horiz-adv-x="333" 
d="M257 714l76 -86q-174 -150 -174 -384q0 -117 44 -209t135 -179l-84 -82q-114 95 -168.5 219t-54.5 251q0 281 226 470z" />
    <glyph glyph-name="parenright" unicode=")" horiz-adv-x="333" 
d="M0 628l76 86q226 -189 226 -470q0 -127 -54.5 -251t-168.5 -219l-84 82q91 87 135 179t44 209q0 234 -174 384z" />
    <glyph glyph-name="asterisk" unicode="*" horiz-adv-x="444" 
d="M347 664l56 -103l-116 -36v-2l116 -38l-55 -100l-91 86l-2 -2l23 -123h-112l23 123l-2 2l-91 -86l-55 100l116 38v2l-116 36l56 103l94 -86l2 2l-25 120h108l-25 -120l2 -2z" />
    <glyph glyph-name="plus" unicode="+" horiz-adv-x="600" 
d="M242 301v185h116v-185h185v-116h-185v-185h-116v185h-185v116h185z" />
    <glyph glyph-name="comma" unicode="," horiz-adv-x="278" 
d="M131 -148h-122l54 296h170z" />
    <glyph glyph-name="hyphen" unicode="-" horiz-adv-x="333" 
d="M291 176h-250v134h250v-134z" />
    <glyph glyph-name="period" unicode="." horiz-adv-x="278" 
d="M139 -12q-43 0 -72.5 30t-29.5 72t29.5 72t72.5 30t72.5 -30t29.5 -72t-29.5 -72t-72.5 -30z" />
    <glyph glyph-name="slash" unicode="/" horiz-adv-x="278" 
d="M82 -12h-117l232 724h117z" />
    <glyph glyph-name="zero" unicode="0" 
d="M523 466v-232q0 -108 -68 -177t-177 -69t-177 69t-68 177v232q0 108 68 177t177 69t177 -69t68 -177zM201 458v-212q0 -55 20 -75.5t57 -20.5t57 20.5t20 75.5v212q0 55 -20 75.5t-57 20.5t-57 -20.5t-20 -75.5z" />
    <glyph glyph-name="one" unicode="1" 
d="M368 700v-700h-164v538h-111v162h275z" />
    <glyph glyph-name="two" unicode="2" 
d="M509 162v-162h-353q-117 0 -117 108q0 34 45.5 91t99.5 108.5t99.5 104t45.5 78.5q0 64 -61 64q-25 0 -42.5 -16.5t-17.5 -45.5q0 -40 32 -66l-113 -112q-79 61 -79 162q0 103 61 169.5t161 66.5q102 0 164.5 -62.5t62.5 -169.5q0 -19 -3 -35.5t-7 -30t-16.5 -32t-21 -31
t-31.5 -37t-38 -40.5t-50 -51.5t-59 -60.5h238z" />
    <glyph glyph-name="three" unicode="3" 
d="M37 0v162h214q47 0 65.5 16t18.5 53q0 27 -15.5 46t-42.5 19h-150v102l160 144h-231v158h266q72 0 109.5 -26.5t37.5 -87.5q0 -22 -15.5 -49t-30.5 -43.5t-42.5 -43.5t-32.5 -32q70 -14 112.5 -66.5t42.5 -124.5q0 -115 -69 -171t-188 -56h-209z" />
    <glyph glyph-name="four" unicode="4" 
d="M532 300v-162h-78v-138h-154v138h-184q-44 0 -75.5 30.5t-31.5 79.5q0 40 30 94l199 352h164l-224 -394h122v150l140 242l13 20q1 0 1 -24v-388h78z" />
    <glyph glyph-name="five" unicode="5" 
d="M53 0v168h209q41 0 62 17.5t21 47.5q0 34 -23 54t-66 20h-189v393h387v-158h-219v-73h37q109 0 175 -60t66 -175q0 -109 -72.5 -171.5t-162.5 -62.5h-225z" />
    <glyph glyph-name="six" unicode="6" 
d="M243 700h190l-206 -387q-31 -57 -31 -83q0 -31 21 -52.5t53 -21.5q40 0 61.5 23.5t21.5 61.5q0 36 -23 57.5t-58 23.5l89 156q74 -29 117 -90t43 -141q0 -117 -68 -188t-185 -71q-108 0 -174 68.5t-66 176.5q0 66 55 168z" />
    <glyph glyph-name="seven" unicode="7" 
d="M61 538v162h276q80 0 119 -27t39 -87q0 -28 -22 -98l-151 -488h-188l189 538h-262z" />
    <glyph glyph-name="eight" unicode="8" 
d="M278 574q-30 0 -50 -20.5t-20 -49.5t20 -49.5t50 -20.5t50 20.5t20 49.5t-20 49.5t-50 20.5zM30 216q0 111 95 164q-71 47 -71 140q0 83 60.5 137.5t163.5 54.5t163.5 -54.5t60.5 -137.5q0 -93 -71 -140q95 -53 95 -164q0 -107 -72.5 -167.5t-175.5 -60.5t-175.5 60.5
t-72.5 167.5zM278 310q-34 0 -57 -24.5t-23 -57.5t23 -57.5t57 -24.5t57 24.5t23 57.5t-23 57.5t-57 24.5z" />
    <glyph glyph-name="nine" unicode="9" 
d="M309 0h-190l206 387q31 57 31 83q0 31 -21 52.5t-53 21.5q-40 0 -61.5 -23.5t-21.5 -61.5q0 -36 23 -57.5t58 -23.5l-89 -156q-74 29 -117 90t-43 141q0 117 68 188t185 71q108 0 174 -68.5t66 -176.5q0 -66 -55 -168z" />
    <glyph glyph-name="colon" unicode=":" horiz-adv-x="278" 
d="M139 -12q-43 0 -72.5 30t-29.5 72t29.5 72t72.5 30t72.5 -30t29.5 -72t-29.5 -72t-72.5 -30zM139 282q-43 0 -72.5 30t-29.5 72t29.5 72t72.5 30t72.5 -30t29.5 -72t-29.5 -72t-72.5 -30z" />
    <glyph glyph-name="semicolon" unicode=";" horiz-adv-x="278" 
d="M131 -148h-122l54 296h170zM139 282q-43 0 -72.5 30t-29.5 72t29.5 72t72.5 30t72.5 -30t29.5 -72t-29.5 -72t-72.5 -30z" />
    <glyph glyph-name="less" unicode="&#x3c;" horiz-adv-x="600" 
d="M544 103v-111l-488 206v90l488 206v-111l-338 -140z" />
    <glyph glyph-name="equal" unicode="=" horiz-adv-x="600" 
d="M543 417v-116h-486v116h486zM543 185v-116h-486v116h486z" />
    <glyph glyph-name="greater" unicode="&#x3e;" horiz-adv-x="600" 
d="M56 103l338 140l-338 140v111l488 -206v-90l-488 -206v111z" />
    <glyph glyph-name="question" unicode="?" 
d="M198 493l-159 47q19 79 83 125.5t147 46.5q101 0 168 -65.5t67 -166.5q0 -70 -45 -125t-113 -72v-60h-160v196h48q37 0 65.5 19.5t28.5 55.5q0 22 -17.5 41t-38.5 19q-31 0 -47.5 -15t-26.5 -46zM269 -12q-43 0 -72.5 30t-29.5 72t29.5 72t72.5 30t72.5 -30t29.5 -72
t-29.5 -72t-72.5 -30z" />
    <glyph glyph-name="at" unicode="@" horiz-adv-x="800" 
d="M386 248q44 0 71.5 30t27.5 72q0 35 -21 56.5t-56 21.5q-40 0 -67.5 -30.5t-27.5 -69.5q0 -35 19.5 -57.5t53.5 -22.5zM513 477l9 47h92l-43 -231q0 -2 -1.5 -8.5t-2 -10t-1.5 -9.5t-0.5 -10t1.5 -8t4 -6t7 -2q35 0 62.5 38t27.5 110q0 114 -70 174.5t-185 60.5
q-120 0 -191.5 -76t-71.5 -197q0 -126 77 -198.5t203 -72.5q108 0 184 57h95q-107 -147 -287 -147q-158 0 -268 102.5t-110 258.5q0 154 108.5 258.5t263.5 104.5q87 0 163.5 -35t126 -103.5t49.5 -155.5q0 -63 -21 -114t-51 -81t-66.5 -50t-64.5 -27.5t-47 -7.5
q-21 0 -35.5 12.5t-15.5 34.5l-2 2q-42 -49 -93 -49q-64 0 -112.5 52t-48.5 122q0 89 55 155.5t141 66.5q78 0 119 -57z" />
    <glyph glyph-name="A" unicode="A" horiz-adv-x="611" 
d="M234 0h-174v460q0 113 68 182.5t177 69.5t177 -69.5t68 -182.5v-460h-174v244h-109v158h109v66q0 39 -19.5 62.5t-51.5 23.5t-51.5 -23.5t-19.5 -62.5v-468z" />
    <glyph glyph-name="B" unicode="B" horiz-adv-x="611" 
d="M233 0h-174v453q0 123 67.5 191t181.5 68q117 0 173 -61.5t56 -149.5q0 -33 -20.5 -71t-46.5 -55q102 -48 102 -175q0 -93 -60.5 -146.5t-155.5 -53.5h-87v162q63 0 89 13.5t26 48.5q0 36 -29 50t-86 14v146q40 0 63 14.5t23 38.5q0 63 -57 63q-33 0 -49 -19.5t-16 -50.5
v-480z" />
    <glyph glyph-name="C" unicode="C" horiz-adv-x="500" 
d="M462 700v-168h-73q-77 0 -125.5 -46.5t-48.5 -135.5t48.5 -135.5t125.5 -46.5h73v-168h-105q-139 0 -231.5 102t-92.5 248t92.5 248t231.5 102h105z" />
    <glyph glyph-name="D" unicode="D" horiz-adv-x="667" 
d="M273 0v168q73 0 123 51.5t50 122.5q0 95 -60.5 142.5t-154.5 47.5v-532h-174v700h177q183 0 286.5 -101.5t103.5 -254.5q0 -150 -100 -247t-251 -97z" />
    <glyph glyph-name="E" unicode="E" horiz-adv-x="500" 
d="M452 700v-162q-83 0 -124 -9t-63.5 -31t-45.5 -72h233v-152h-233q34 -75 73.5 -93.5t159.5 -18.5v-162h-99q-139 0 -229.5 101t-90.5 249t90.5 249t229.5 101h99z" />
    <glyph glyph-name="F" unicode="F" horiz-adv-x="444" 
d="M223 250v-250h-174v486q0 93 56.5 153.5t150.5 60.5h164v-168h-136q-34 0 -47.5 -13t-13.5 -41v-66h197v-162h-197z" />
    <glyph glyph-name="G" unicode="G" horiz-adv-x="778" 
d="M680 600l-122 -121q-42 36 -76.5 50.5t-83.5 14.5q-85 0 -134 -55t-49 -137q0 -84 53 -140t134 -56q45 0 91 35t63 85h-175v158h365v-74q0 -97 -42.5 -181t-125.5 -137.5t-189 -53.5q-148 0 -252 107t-104 255t104 255t252 107q166 0 291 -112z" />
    <glyph glyph-name="H" unicode="H" horiz-adv-x="611" 
d="M236 455h138v245h174v-700h-174v287h-138v-287h-174v700h174v-245z" />
    <glyph glyph-name="I" unicode="I" horiz-adv-x="278" 
d="M226 700v-700h-174v700h174z" />
    <glyph glyph-name="J" unicode="J" horiz-adv-x="389" 
d="M0 0v168h70q52 0 70.5 15.5t18.5 58.5v458h174v-430q0 -55 -6.5 -95.5t-17.5 -70t-33.5 -48.5t-45 -30.5t-62 -17t-75 -7t-93.5 -1.5z" />
    <glyph glyph-name="K" unicode="K" horiz-adv-x="611" 
d="M63 0v700h174v-241q26 1 39 7t22 25l100 209h199l-99 -205q-29 -60 -66 -84q127 -34 127 -151v-260h-182v222q0 50 -26 62.5t-114 12.5v-297h-174z" />
    <glyph glyph-name="L" unicode="L" horiz-adv-x="444" 
d="M433 168v-168h-133q-129 0 -189 53t-60 173v474h174v-458q0 -43 18.5 -58.5t70.5 -15.5h119z" />
    <glyph glyph-name="M" unicode="M" horiz-adv-x="778" 
d="M183 0h-166l56 560q8 82 35.5 117t101.5 35q106 0 125 -128l51 -337h5l51 337q19 128 125 128q74 0 101.5 -35t35.5 -117l56 -560h-166l-31 570h-2v-16l-86 -476q-8 -41 -31.5 -65.5t-55.5 -24.5t-55.5 24.5t-31.5 65.5l-86 476h-2z" />
    <glyph glyph-name="N" unicode="N" horiz-adv-x="667" 
d="M230 0h-174v616q0 42 29.5 69t73.5 27t72 -17.5t48 -56.5l155 -308h2v370h174v-610q0 -46 -28 -74t-64 -28t-63.5 23t-60.5 87l-162 312h-2v-410z" />
    <glyph glyph-name="O" unicode="O" horiz-adv-x="778" 
d="M569 350q0 76 -52 130t-128 54t-128 -54t-52 -130t52 -130t128 -54t128 54t52 130zM745 350q0 -148 -104 -255t-252 -107t-252 107t-104 255t104 255t252 107t252 -107t104 -255z" />
    <glyph glyph-name="P" unicode="P" 
d="M223 0h-174v453q0 123 67.5 191t181.5 68q99 0 168 -66.5t69 -169.5q0 -111 -64 -178.5t-175 -67.5h-44v162q57 0 83 16.5t26 67.5q0 31 -20 52.5t-53 21.5q-30 0 -47.5 -19t-17.5 -51v-480z" />
    <glyph glyph-name="Q" unicode="Q" horiz-adv-x="778" 
d="M472 -90h-160v360h160v-83q44 22 70.5 66t26.5 97q0 76 -52 130t-128 54t-128 -54t-52 -130q0 -44 17.5 -83t49.5 -62v-199q-108 36 -175.5 131.5t-67.5 212.5q0 148 104 255t252 107t252 -107t104 -255q0 -126 -77 -225t-196 -128v-87z" />
    <glyph glyph-name="R" unicode="R" horiz-adv-x="611" 
d="M235 0h-182v453q0 123 67.5 191t181.5 68q105 0 169.5 -55.5t64.5 -152.5q0 -132 -119 -144v-2q32 -7 48 -12t39 -17.5t33 -34t10 -52.5v-242h-176v212q0 31 -23.5 43t-81.5 12v158q49 1 71.5 16t22.5 54q0 27 -19 41t-43 14q-32 0 -47.5 -22.5t-15.5 -73.5v-454z" />
    <glyph glyph-name="S" unicode="S" horiz-adv-x="500" 
d="M424 700v-162h-176q-40 0 -40 -29q0 -16 27 -37.5t65 -46.5t76.5 -55t65.5 -72t27 -88q0 -32 -4 -57t-19 -55t-40 -50.5t-72.5 -34t-111.5 -13.5h-187v162h181q65 0 65 38q0 20 -26 43t-62.5 47.5t-73.5 53t-63 70t-26 88.5q0 102 60.5 150t151.5 48h182z" />
    <glyph glyph-name="T" unicode="T" horiz-adv-x="444" 
d="M7 700h430v-168h-128v-532h-174v532h-128v168z" />
    <glyph glyph-name="U" unicode="U" horiz-adv-x="611" 
d="M50 700h174v-461q0 -83 81 -83t81 83v461h174v-447q0 -121 -68 -193t-187 -72t-187 72t-68 193v447z" />
    <glyph glyph-name="V" unicode="V" 
d="M-8 700h183l97 -488h2l108 488h182l-135 -534q-26 -101 -58.5 -139.5t-100.5 -38.5q-65 0 -98 39t-56 137z" />
    <glyph glyph-name="W" unicode="W" horiz-adv-x="889" 
d="M63 700h174v-464q0 -80 60 -80t60 80v464h174v-464q0 -80 60 -80t60 80v464h174v-493q0 -95 -59 -157t-169 -62q-106 0 -153 68q-47 -68 -153 -68q-110 0 -169 62t-59 157v493z" />
    <glyph glyph-name="X" unicode="X" 
d="M540 700v-162q-80 0 -127.5 -54.5t-47.5 -133.5t47.5 -133.5t127.5 -54.5v-162q-100 0 -161 30.5t-101 106.5q-40 -76 -101 -106.5t-161 -30.5v162q80 0 127.5 54.5t47.5 133.5t-47.5 133.5t-127.5 54.5v162q100 0 161 -30.5t101 -106.5q40 76 101 106.5t161 30.5z" />
    <glyph glyph-name="Y" unicode="Y" 
d="M369 0h-174v250q-76 23 -113 83q-32 51 -32 119v248h174v-232q0 -68 54 -68t54 68v232h174v-248q0 -72 -34.5 -125.5t-102.5 -76.5v-250z" />
    <glyph glyph-name="Z" unicode="Z" 
d="M517 168v-168h-366q-51 0 -82 28.5t-31 77.5q0 9 1.5 18t6 20t7.5 18.5t11.5 21t12 19t14.5 22.5t14 22l183 285h-211v168h306q68 0 97.5 -26.5t29.5 -79.5q0 -19 -6.5 -38t-13 -31.5t-21.5 -36.5l-200 -320h248z" />
    <glyph glyph-name="bracketleft" unicode="[" horiz-adv-x="333" 
d="M294 -218h-218v918h218v-64h-90v-790h90v-64z" />
    <glyph glyph-name="backslash" unicode="\" horiz-adv-x="278" 
d="M-68 712h116l298 -724h-116z" />
    <glyph glyph-name="bracketright" unicode="]" horiz-adv-x="333" 
d="M257 -218h-218v64h90v790h-90v64h218v-918z" />
    <glyph glyph-name="asciicircum" unicode="^" horiz-adv-x="600" 
d="M189 335h-116l174 365h106l174 -365h-117l-110 248z" />
    <glyph glyph-name="underscore" unicode="_" horiz-adv-x="500" 
d="M500 -125h-500v50h500v-50z" />
    <glyph glyph-name="grave" unicode="`" horiz-adv-x="278" 
d="M-66 707h208l100 -148h-137z" />
    <glyph glyph-name="a" unicode="a" horiz-adv-x="611" 
d="M570 0h-160v224q0 128 -113 128q-44 0 -77 -30.5t-33 -75.5q0 -52 32 -82t74 -30q41 0 77 14v-132q-40 -28 -109 -28q-86 0 -160 69t-74 185q0 110 75.5 183t191.5 73q119 0 197.5 -62.5t78.5 -173.5v-262z" />
    <glyph glyph-name="b" unicode="b" horiz-adv-x="611" 
d="M41 700h160v-437q0 -58 29 -93.5t84 -35.5q47 0 78.5 30.5t31.5 78.5t-31.5 78.5t-78.5 30.5q-43 0 -67 -14v148q30 12 78 12q103 0 181 -68t78 -186q0 -110 -75.5 -183t-191.5 -73q-114 0 -195 62.5t-81 173.5v476z" />
    <glyph glyph-name="c" unicode="c" horiz-adv-x="389" 
d="M350 486v-145h-68q-49 0 -75 -26t-26 -72t26 -72.5t75 -26.5h68v-144h-96q-93 0 -163 66.5t-70 176.5q0 109 70 176t163 67h96z" />
    <glyph glyph-name="d" unicode="d" horiz-adv-x="611" 
d="M410 700h160v-476q0 -111 -81 -173.5t-195 -62.5q-116 0 -191.5 73t-75.5 183q0 118 78 186t181 68q48 0 78 -12v-148q-24 14 -67 14q-47 0 -78.5 -30.5t-31.5 -78.5t31.5 -78.5t78.5 -30.5q55 0 84 35.5t29 93.5v437z" />
    <glyph glyph-name="e" unicode="e" 
d="M513 343l-241 -166l-61 96l131 86q-27 17 -62 17q-46 0 -74 -38.5t-28 -86.5t30.5 -85.5t77.5 -37.5q43 0 83.5 32.5t59.5 76.5l115 -59q-35 -85 -107.5 -137.5t-161.5 -52.5q-101 0 -176 75.5t-75 179.5t75 179.5t176 75.5q153 0 238 -155z" />
    <glyph glyph-name="f" unicode="f" horiz-adv-x="333" 
d="M202 0h-160v524q0 77 53.5 126.5t142.5 49.5h88v-146h-74q-29 0 -39.5 -15.5t-10.5 -48.5h124v-146h-124v-344z" />
    <glyph glyph-name="g" unicode="g" 
d="M93 -195v150q73 -27 145 -27q124 0 124 92v226q0 48 -24 77t-71 29q-40 0 -67.5 -29t-27.5 -71q0 -45 26 -75.5t70 -30.5q32 0 63 14v-151q-37 -9 -89 -9q-91 0 -154.5 72.5t-63.5 172.5q0 101 66.5 177t175.5 76q114 0 182 -73.5t68 -200.5v-173q0 -136 -67.5 -202.5
t-205.5 -66.5q-81 0 -150 23z" />
    <glyph glyph-name="h" unicode="h" horiz-adv-x="500" 
d="M35 0v700h160v-228q49 26 93 26q86 0 131.5 -56t45.5 -132v-310h-160v283q0 30 -15 45.5t-40 15.5t-40 -15.5t-15 -45.5v-283h-160z" />
    <glyph glyph-name="i" unicode="i" horiz-adv-x="278" 
d="M219 486v-486h-160v486h160zM48 621q0 39 26.5 65t64.5 26t64.5 -26t26.5 -65t-26.5 -65t-64.5 -26t-64.5 26t-26.5 65z" />
    <glyph glyph-name="j" unicode="j" horiz-adv-x="278" 
d="M-36 -218v148q60 0 76 10.5t16 43.5v502h160v-500q0 -116 -57.5 -160t-194.5 -44zM45 621q0 39 26.5 65t64.5 26t64.5 -26t26.5 -65t-26.5 -65t-64.5 -26t-64.5 26t-26.5 65z" />
    <glyph glyph-name="k" unicode="k" horiz-adv-x="500" 
d="M40 0v700h160v-363q38 0 56 24t52 125h164l-45 -128q-23 -67 -62 -76v-2q62 -20 82.5 -54.5t20.5 -95.5v-130h-154v125q0 33 -17 49.5t-45 16.5h-52v-191h-160z" />
    <glyph glyph-name="l" unicode="l" horiz-adv-x="278" 
d="M219 0h-160v700h160v-700z" />
    <glyph glyph-name="m" unicode="m" horiz-adv-x="778" 
d="M469 0h-160v288q0 56 -51 56t-51 -56v-288h-160v314q0 82 60 133t144 51q77 0 138 -68q61 68 138 68q84 0 144 -51t60 -133v-314h-160v288q0 56 -51 56t-51 -56v-288z" />
    <glyph glyph-name="n" unicode="n" horiz-adv-x="500" 
d="M195 0h-154v278q0 98 55 159t154 61t154 -61t55 -159v-278h-154v278q0 32 -15 50t-40 18t-40 -18t-15 -50v-278z" />
    <glyph glyph-name="o" unicode="o" 
d="M181 243q0 -43 28 -73t69 -30t69 30t28 73t-28 73t-69 30t-69 -30t-28 -73zM27 243q0 104 75 179.5t176 75.5t176 -75.5t75 -179.5t-75 -179.5t-176 -75.5t-176 75.5t-75 179.5z" />
    <glyph glyph-name="p" unicode="p" horiz-adv-x="611" 
d="M201 -210h-160v472q0 111 81 173.5t195 62.5q116 0 191.5 -73t75.5 -183q0 -118 -78 -186t-181 -68q-48 0 -78 12v148q24 -14 67 -14q47 0 78.5 30.5t31.5 78.5t-31.5 78.5t-78.5 30.5q-55 0 -84 -35.5t-29 -93.5v-433z" />
    <glyph glyph-name="q" unicode="q" horiz-adv-x="611" 
d="M570 -210h-160v433q0 58 -29 93.5t-84 35.5q-47 0 -78.5 -30.5t-31.5 -78.5t31.5 -78.5t78.5 -30.5q43 0 67 14v-148q-30 -12 -78 -12q-103 0 -181 68t-78 186q0 110 75.5 183t191.5 73q114 0 195 -62.5t81 -173.5v-472z" />
    <glyph glyph-name="r" unicode="r" horiz-adv-x="333" 
d="M176 486v-81h2q17 48 49.5 64.5t90.5 16.5v-146q-80 -3 -100.5 -24.5t-20.5 -87.5v-228h-160v486h139z" />
    <glyph glyph-name="s" unicode="s" horiz-adv-x="389" 
d="M21 0v136h154q28 0 28 22q0 12 -18 21.5t-44 19.5t-52.5 25.5t-44.5 47t-18 76.5q0 65 47 101.5t109 36.5h156v-130h-125q-14 0 -23.5 -6.5t-9.5 -16.5t19.5 -20.5t47 -22.5t54.5 -28t46.5 -44.5t19.5 -64.5q0 -74 -44 -113.5t-123 -39.5h-179z" />
    <glyph glyph-name="t" unicode="t" horiz-adv-x="333" 
d="M193 490h113v-146h-114v-130q0 -41 17 -53.5t65 -14.5q12 0 34 2v-148h-90q-87 0 -133.5 50t-46.5 124v432h155v-116z" />
    <glyph glyph-name="u" unicode="u" horiz-adv-x="500" 
d="M195 486v-278q0 -32 15 -50t40 -18t40 18t15 50v278h154v-278q0 -98 -55 -159t-154 -61t-154 61t-55 159v278h154z" />
    <glyph glyph-name="v" unicode="v" horiz-adv-x="444" 
d="M288 486h163l-108 -366q-9 -30 -16 -47.5t-20.5 -40t-35 -33.5t-49.5 -11q-59 0 -85.5 33t-43.5 99l-99 366h161l67 -320h2z" />
    <glyph glyph-name="w" unicode="w" horiz-adv-x="778" 
d="M47 172v314h160v-288q0 -56 51 -56t51 56v288h160v-288q0 -56 51 -56t51 56v288h160v-314q0 -82 -60 -133t-144 -51q-37 0 -74 18.5t-64 49.5q-27 -31 -64 -49.5t-74 -18.5q-84 0 -144 51t-60 133z" />
    <glyph glyph-name="x" unicode="x" horiz-adv-x="444" 
d="M422 486v-140q-61 0 -92 -23t-31 -80t31 -80t92 -23v-140q-33 0 -50.5 0.5t-43 5t-41.5 12.5t-33.5 24t-31.5 39q-14 -23 -31.5 -39t-33.5 -24t-41.5 -12.5t-43 -5t-50.5 -0.5v140q61 0 92 23t31 80t-31 80t-92 23v140q33 0 50.5 -0.5t43 -5t41.5 -12.5t33.5 -24
t31.5 -39q14 23 31.5 39t33.5 24t41.5 12.5t43 5t50.5 0.5z" />
    <glyph glyph-name="y" unicode="y" horiz-adv-x="500" 
d="M332 -210h-160v206q-69 21 -101 67q-31 44 -31 111v312h154v-282q0 -68 58 -68q32 0 43 19t11 56v275h154v-312q0 -69 -34.5 -114t-93.5 -64v-206z" />
    <glyph glyph-name="z" unicode="z" horiz-adv-x="444" 
d="M41 346v140h253q70 0 97 -24t27 -71q0 -31 -36 -74l-147 -171h182v-146h-313q-45 0 -68 24.5t-23 67.5q0 38 25 66l171 188h-168z" />
    <glyph glyph-name="braceleft" unicode="{" horiz-adv-x="333" 
d="M327 700v-63h-55q-32 0 -45 -13.5t-13 -50.5v-232q0 -26 -11.5 -45.5t-29 -29t-31.5 -14t-26 -5.5v-3q16 -2 27 -5t30.5 -12.5t30 -31t10.5 -53.5v-236q0 -60 58 -60h55v-64h-93q-67 0 -107.5 40t-40.5 102v205q0 22 -11 36.5t-29 21t-31 8.5t-26 2v97q18 0 36.5 3
t39.5 17.5t21 39.5v205q0 66 42 103.5t98 37.5h101z" />
    <glyph glyph-name="bar" unicode="|" horiz-adv-x="222" 
d="M53 0v700h116v-700h-116z" />
    <glyph glyph-name="braceright" unicode="}" horiz-adv-x="333" 
d="M6 637v63h101q56 0 98 -37.5t42 -103.5v-205q0 -25 21 -39.5t39.5 -17.5t36.5 -3v-97q-13 0 -26 -2t-31 -8.5t-29 -21t-11 -36.5v-205q0 -62 -40.5 -102t-107.5 -40h-93v64h55q58 0 58 60v236q0 32 10.5 53.5t30 31t30.5 12.5t27 5v3q-12 1 -26 5.5t-31.5 14t-29 29
t-11.5 45.5v232q0 37 -13 50.5t-45 13.5h-55z" />
    <glyph glyph-name="asciitilde" unicode="~" horiz-adv-x="600" 
d="M495 336l36 -96q-20 -27 -33 -42t-38 -29.5t-54 -14.5q-38 0 -104 34t-113 34q-51 0 -84 -72l-36 96q45 86 125 86q41 0 115 -34q76 -34 98 -34q19 0 36.5 12t27 24.5t24.5 35.5z" />
    <glyph glyph-name="uni00A0" unicode="&#xa0;" horiz-adv-x="278" 
 />
    <glyph glyph-name="exclamdown" unicode="&#xa1;" horiz-adv-x="333" 
d="M261 -206h-188l14 479h160zM167 506q43 0 72.5 -30t29.5 -72t-29.5 -72t-72.5 -30t-72.5 30t-29.5 72t29.5 72t72.5 30z" />
    <glyph glyph-name="cent" unicode="&#xa2;" 
d="M337 42h-100v140q-75 10 -122 70t-47 136t47 136t122 70v140h100v-138h68v-126h-117q-35 0 -59.5 -22t-24.5 -60t24.5 -60t59.5 -22h117v-126h-68v-138z" />
    <glyph glyph-name="sterling" unicode="&#xa3;" 
d="M0 0v168q63 0 79.5 25t16.5 114h-59v148h59q0 141 59.5 199t174.5 58h89v-158h-75q-43 0 -61.5 -23t-18.5 -78h83v-146h-83q1 -59 -7 -88.5t-30 -53.5q7 0 19.5 1t23 1.5t19.5 0.5q69 0 89 31.5t23 107.5h160v-55q0 -120 -69.5 -186t-169.5 -66h-322z" />
    <glyph glyph-name="currency" unicode="&#xa4;" 
d="M540 154l-68 -68l-58 58q-46 -42 -136 -42t-136 42l-58 -58l-68 68l56 56q-42 45 -42 140t42 140l-56 56l68 68l58 -58q46 42 136 42t136 -42l58 58l68 -68l-56 -56q42 -45 42 -140t-42 -140zM150 350q0 -58 36.5 -98t91.5 -40t91.5 40t36.5 98t-36.5 98t-91.5 40
t-91.5 -40t-36.5 -98z" />
    <glyph glyph-name="yen" unicode="&#xa5;" 
d="M353 194v-194h-164v194h-110v96h110v60h-110v96h89q-43 92 -144 92v162q94 0 151.5 -30.5t95.5 -106.5q38 76 95.5 106.5t151.5 30.5v-162q-101 0 -144 -92h89v-96h-110v-60h110v-96h-110z" />
    <glyph glyph-name="brokenbar" unicode="&#xa6;" horiz-adv-x="222" 
d="M53 0v262h116v-262h-116zM53 438v262h116v-262h-116z" />
    <glyph glyph-name="section" unicode="&#xa7;" 
d="M473 608l-101 -65q-4 5 -12.5 16t-12 15t-11 11.5t-14 10.5t-16 5.5t-21.5 2.5q-18 0 -27 -12.5t-9 -30.5t40.5 -49.5t88.5 -63t88.5 -81t40.5 -99.5q0 -44 -29 -77.5t-77 -42.5q19 -15 33.5 -46t14.5 -55q0 -76 -52.5 -113.5t-131.5 -37.5q-56 0 -107 28.5t-80 76.5
l107 79q9 -31 31 -53.5t51 -22.5q17 0 28.5 13t11.5 30q0 19 -26.5 44t-64.5 52t-76.5 57t-65 69.5t-26.5 79.5q0 51 32.5 83.5t82.5 33.5v2q-50 35 -50 108q0 66 53 101t122 35q57 0 107 -28t78 -76zM178 358q0 -27 70 -82t94 -55q13 0 24 9.5t11 25.5q0 21 -68 78.5
t-96 57.5q-35 0 -35 -34z" />
    <glyph glyph-name="dieresis" unicode="&#xa8;" horiz-adv-x="278" 
d="M253 544q-35 0 -59.5 24.5t-24.5 59.5t24.5 59.5t59.5 24.5t59.5 -24.5t24.5 -59.5t-24.5 -59.5t-59.5 -24.5zM24 544q-35 0 -59.5 24.5t-24.5 59.5t24.5 59.5t59.5 24.5t59.5 -24.5t24.5 -59.5t-24.5 -59.5t-59.5 -24.5z" />
    <glyph glyph-name="copyright" unicode="&#xa9;" horiz-adv-x="800" 
d="M400 -12q-154 0 -265 98.5t-111 263.5t111 263.5t265 98.5q99 0 183.5 -41.5t138.5 -125.5t54 -195t-54 -195t-138.5 -125.5t-183.5 -41.5zM656 350q0 119 -74.5 195.5t-181.5 76.5q-108 0 -182 -76t-74 -196t74 -196t182 -76q107 0 181.5 76.5t74.5 195.5zM496 297h92
q-10 -72 -58.5 -112t-114.5 -40q-89 0 -144.5 59.5t-55.5 148.5q0 92 53.5 150.5t144.5 58.5q67 0 113.5 -38.5t57.5 -110.5h-88q-11 59 -83 59q-43 0 -66.5 -31t-23.5 -86q0 -52 25.5 -86t66.5 -34q77 0 81 62z" />
    <glyph glyph-name="ordfeminine" unicode="&#xaa;" horiz-adv-x="367" 
d="M356 413h-104v134q0 77 -73 77q-28 0 -49.5 -18.5t-21.5 -44.5q0 -32 20.5 -50t48.5 -18q23 0 50 9v-79q-26 -17 -71 -17q-56 0 -104 41t-48 111q0 66 49 110t124 44q78 0 128.5 -37.5t50.5 -104.5v-157z" />
    <glyph glyph-name="guillemotleft" unicode="&#xab;" 
d="M293 89h-120l-120 154l120 154h122l-120 -154zM501 89h-120l-120 154l120 154h122l-120 -154z" />
    <glyph glyph-name="logicalnot" unicode="&#xac;" horiz-adv-x="600" 
d="M427 113v188h-370v116h486v-304h-116z" />
    <glyph glyph-name="uni00AD" unicode="&#xad;" horiz-adv-x="333" 
d="M291 176h-250v134h250v-134z" />
    <glyph glyph-name="registered" unicode="&#xae;" horiz-adv-x="800" 
d="M400 -12q-154 0 -265 98.5t-111 263.5t111 263.5t265 98.5q99 0 183.5 -41.5t138.5 -125.5t54 -195t-54 -195t-138.5 -125.5t-183.5 -41.5zM656 350q0 119 -74.5 195.5t-181.5 76.5q-108 0 -182 -76t-74 -196t74 -196t182 -76q107 0 181.5 76.5t74.5 195.5zM342 318v-164
h-90v393h147q82 0 123.5 -27t41.5 -93q0 -98 -110 -103l100 -170h-90l-89 164h-33zM342 388h75q27 0 40 10.5t13 38.5q0 40 -62 40h-66v-89z" />
    <glyph glyph-name="macron" unicode="&#xaf;" horiz-adv-x="278" 
d="M328 588h-377v90h377v-90z" />
    <glyph glyph-name="degree" unicode="&#xb0;" horiz-adv-x="400" 
d="M200 654q-36 0 -58.5 -24.5t-22.5 -60.5t22.5 -60.5t58.5 -24.5t58.5 24.5t22.5 60.5t-22.5 60.5t-58.5 24.5zM200 712q60 0 101.5 -41.5t41.5 -101.5t-41.5 -101.5t-101.5 -41.5t-101.5 41.5t-41.5 101.5t41.5 101.5t101.5 41.5z" />
    <glyph glyph-name="plusminus" unicode="&#xb1;" horiz-adv-x="600" 
d="M242 373v113h116v-113h185v-116h-185v-113h-116v113h-185v116h185zM57 0v116h486v-116h-486z" />
    <glyph glyph-name="twosuperior" unicode="&#xb2;" horiz-adv-x="333" 
d="M319 382v-97h-230q-76 0 -76 65q0 20 29.5 54.5t65 65t65 62t29.5 47.5q0 38 -40 38q-17 0 -28 -10t-11 -27q0 -24 21 -39l-73 -68q-52 37 -52 98q0 62 40 101.5t105 39.5q66 0 106.5 -37.5t40.5 -101.5q0 -11 -2 -21.5t-4.5 -18.5t-10.5 -19t-13.5 -18t-21 -22.5
l-24.5 -24.5t-32.5 -31t-38.5 -36h155z" />
    <glyph glyph-name="threesuperior" unicode="&#xb3;" horiz-adv-x="333" 
d="M15 285v97h139q31 0 43 9.5t12 32.5q0 16 -10.5 27.5t-27.5 11.5h-97v61l104 84v2h-151v95h173q96 0 96 -68q0 -13 -10 -29.5t-19.5 -26t-28.5 -26.5t-21 -19q46 -9 73.5 -40.5t27.5 -74.5q0 -69 -44.5 -102.5t-122.5 -33.5h-136z" />
    <glyph glyph-name="acute" unicode="&#xb4;" horiz-adv-x="278" 
d="M137 707h208l-171 -148h-137z" />
    <glyph glyph-name="mu" unicode="&#xb5;" horiz-adv-x="500" 
d="M305 486h154v-278q0 -98 -55 -159t-154 -61q-36 0 -55 6v-204h-154v696h154v-278q0 -32 15 -50t40 -18t40 18t15 50v278z" />
    <glyph glyph-name="paragraph" unicode="&#xb6;" horiz-adv-x="620" 
d="M206 -191v542q-108 0 -165.5 45t-57.5 126q0 100 64.5 139t181.5 39h314v-891h-120v801h-97v-801h-120z" />
    <glyph glyph-name="periodcentered" unicode="&#xb7;" horiz-adv-x="278" 
d="M139 141q-43 0 -72.5 30t-29.5 72t29.5 72t72.5 30t72.5 -30t29.5 -72t-29.5 -72t-72.5 -30z" />
    <glyph glyph-name="cedilla" unicode="&#xb8;" horiz-adv-x="278" 
d="M7 -189l21 46q61 -21 86 -21q23 0 37.5 11.5t14.5 28.5q0 13 -15.5 23t-32.5 10q-5 0 -35 -10l-25 24l55 92h58l-39 -64q16 4 37 4q37 0 67 -20.5t30 -55.5q0 -47 -42.5 -72t-92.5 -25q-53 0 -124 29z" />
    <glyph glyph-name="onesuperior" unicode="&#xb9;" horiz-adv-x="333" 
d="M227 705v-420h-106v323h-73v97h179z" />
    <glyph glyph-name="ordmasculine" unicode="&#xba;" horiz-adv-x="334" 
d="M108 559q0 -26 18 -44.5t45 -18.5t45 18.5t18 44.5q0 25 -18.5 44t-44.5 19q-27 0 -45 -19t-18 -44zM8 559q0 63 48.5 108t114.5 45t114.5 -45t48.5 -108t-48.5 -108t-114.5 -45t-114.5 45t-48.5 108z" />
    <glyph glyph-name="guillemotright" unicode="&#xbb;" 
d="M383 89h-120l118 154l-120 154h122l120 -154zM175 89h-120l118 154l-120 154h122l120 -154z" />
    <glyph glyph-name="onequarter" unicode="&#xbc;" horiz-adv-x="834" 
d="M254 -12h-107l396 724h107zM207 705v-420h-106v323h-73v97h179zM802 180v-97h-51v-83h-100v83h-120q-28 0 -48.5 18t-20.5 48q0 27 19 56l130 211h106l-145 -236h79v90l91 145l8 12q1 0 1 -14v-233h51z" />
    <glyph glyph-name="onehalf" unicode="&#xbd;" horiz-adv-x="834" 
d="M231 -12h-107l396 724h107zM800 96v-96h-230q-76 0 -76 65q0 20 30 54.5t65.5 65t65.5 62t30 47.5q0 38 -42 38q-17 0 -27.5 -11.5t-10.5 -25.5q0 -25 20 -39l-73 -68q-53 38 -53 98q0 62 40.5 102t105.5 40t105.5 -38t40.5 -102q0 -11 -2 -21t-4.5 -18.5t-10.5 -19.5
t-13.5 -18.5t-20.5 -22.5t-24.5 -24t-32.5 -31t-38 -37h155zM207 705v-420h-106v323h-73v97h179z" />
    <glyph glyph-name="threequarters" unicode="&#xbe;" horiz-adv-x="834" 
d="M285 -12h-107l396 724h107zM802 180v-97h-51v-83h-100v83h-120q-28 0 -48.5 18t-20.5 48q0 27 19 56l130 211h106l-145 -236h79v90l91 145l8 12q1 0 1 -14v-233h51zM15 285v97h139q31 0 43 9.5t12 32.5q0 16 -10.5 27.5t-27.5 11.5h-97v61l104 84v2h-151v95h173
q96 0 96 -68q0 -13 -10 -29.5t-19.5 -26t-28.5 -26.5t-21 -19q46 -9 73.5 -40.5t27.5 -74.5q0 -69 -44.5 -102.5t-122.5 -33.5h-136z" />
    <glyph glyph-name="questiondown" unicode="&#xbf;" 
d="M358 1l159 -47q-19 -79 -83 -125.5t-147 -46.5q-101 0 -168 65.5t-67 166.5q0 70 45 125t113 72v60h160v-196h-48q-37 0 -65.5 -19.5t-28.5 -55.5q0 -22 17.5 -41t38.5 -19q31 0 47.5 15t26.5 46zM287 506q43 0 72.5 -30t29.5 -72t-29.5 -72t-72.5 -30t-72.5 30t-29.5 72
t29.5 72t72.5 30z" />
    <glyph glyph-name="Agrave" unicode="&#xc0;" horiz-adv-x="611" 
d="M234 0h-174v460q0 113 68 182.5t177 69.5t177 -69.5t68 -182.5v-460h-174v244h-109v158h109v66q0 39 -19.5 62.5t-51.5 23.5t-51.5 -23.5t-19.5 -62.5v-468zM101 893h208l100 -148h-137z" />
    <glyph glyph-name="Aacute" unicode="&#xc1;" horiz-adv-x="611" 
d="M234 0h-174v460q0 113 68 182.5t177 69.5t177 -69.5t68 -182.5v-460h-174v244h-109v158h109v66q0 39 -19.5 62.5t-51.5 23.5t-51.5 -23.5t-19.5 -62.5v-468zM304 893h208l-171 -148h-137z" />
    <glyph glyph-name="Acircumflex" unicode="&#xc2;" horiz-adv-x="611" 
d="M234 0h-174v460q0 113 68 182.5t177 69.5t177 -69.5t68 -182.5v-460h-174v244h-109v158h109v66q0 39 -19.5 62.5t-51.5 23.5t-51.5 -23.5t-19.5 -62.5v-468zM103 745l121 148h164l122 -148h-149l-55 75l-56 -75h-147z" />
    <glyph glyph-name="Atilde" unicode="&#xc3;" horiz-adv-x="611" 
d="M234 0h-174v460q0 113 68 182.5t177 69.5t177 -69.5t68 -182.5v-460h-174v244h-109v158h109v66q0 39 -19.5 62.5t-51.5 23.5t-51.5 -23.5t-19.5 -62.5v-468zM422 884h79q-15 -133 -131 -133q-30 0 -77 18.5t-63 18.5q-15 0 -26.5 -14t-14.5 -28h-79q5 52 36 94
q36 46 87 46q34 0 82 -19.5t62 -19.5q33 0 45 37z" />
    <glyph glyph-name="Adieresis" unicode="&#xc4;" horiz-adv-x="611" 
d="M234 0h-174v460q0 113 68 182.5t177 69.5t177 -69.5t68 -182.5v-460h-174v244h-109v158h109v66q0 39 -19.5 62.5t-51.5 23.5t-51.5 -23.5t-19.5 -62.5v-468zM420 730q-35 0 -59.5 24.5t-24.5 59.5t24.5 59.5t59.5 24.5t59.5 -24.5t24.5 -59.5t-24.5 -59.5t-59.5 -24.5z
M191 730q-35 0 -59.5 24.5t-24.5 59.5t24.5 59.5t59.5 24.5t59.5 -24.5t24.5 -59.5t-24.5 -59.5t-59.5 -24.5z" />
    <glyph glyph-name="Aring" unicode="&#xc5;" horiz-adv-x="611" 
d="M234 0h-174v460q0 113 68 182.5t177 69.5t177 -69.5t68 -182.5v-460h-174v244h-109v158h109v66q0 39 -19.5 62.5t-51.5 23.5t-51.5 -23.5t-19.5 -62.5v-468zM257 854q0 -19 15 -33.5t34 -14.5t34 14.5t15 33.5t-15 33.5t-34 14.5t-34 -14.5t-15 -33.5zM193 854
q0 46 33.5 79t79.5 33t79.5 -33t33.5 -79t-33.5 -79t-79.5 -33t-79.5 33t-33.5 79z" />
    <glyph glyph-name="AE" unicode="&#xc6;" horiz-adv-x="889" 
d="M225 0h-174v460q0 113 68 182.5t177 69.5q125 0 210 -88q77 76 224 76h111v-156h-88q-65 0 -115.5 -29.5t-70.5 -84.5h274v-158h-274q20 -55 70.5 -84.5t115.5 -29.5h88v-158h-111q-66 0 -102 13t-83 56v-69h-174v272h-114v158h114v63q0 26 -21 43.5t-54 17.5
q-32 0 -51.5 -23.5t-19.5 -62.5v-468z" />
    <glyph glyph-name="Ccedilla" unicode="&#xc7;" horiz-adv-x="500" 
d="M462 700v-168h-73q-77 0 -125.5 -46.5t-48.5 -135.5t48.5 -135.5t125.5 -46.5h73v-168h-104q-18 0 -27 1l-30 -50q16 4 37 4q37 0 67 -20.5t30 -55.5q0 -47 -42.5 -72t-92.5 -25q-53 0 -124 29l21 46q61 -21 86 -21q23 0 37.5 11.5t14.5 28.5q0 13 -15.5 23t-32.5 10
q-5 0 -35 -10l-25 24l51 87q-109 28 -177 122.5t-68 217.5q0 146 92.5 248t231.5 102h105z" />
    <glyph glyph-name="Egrave" unicode="&#xc8;" horiz-adv-x="500" 
d="M452 700v-162q-83 0 -124 -9t-63.5 -31t-45.5 -72h233v-152h-233q34 -75 73.5 -93.5t159.5 -18.5v-162h-99q-139 0 -229.5 101t-90.5 249t90.5 249t229.5 101h99zM97 893h208l100 -148h-137z" />
    <glyph glyph-name="Eacute" unicode="&#xc9;" horiz-adv-x="500" 
d="M452 700v-162q-83 0 -124 -9t-63.5 -31t-45.5 -72h233v-152h-233q34 -75 73.5 -93.5t159.5 -18.5v-162h-99q-139 0 -229.5 101t-90.5 249t90.5 249t229.5 101h99zM300 893h208l-171 -148h-137z" />
    <glyph glyph-name="Ecircumflex" unicode="&#xca;" horiz-adv-x="500" 
d="M452 700v-162q-83 0 -124 -9t-63.5 -31t-45.5 -72h233v-152h-233q34 -75 73.5 -93.5t159.5 -18.5v-162h-99q-139 0 -229.5 101t-90.5 249t90.5 249t229.5 101h99zM99 745l121 148h164l122 -148h-149l-55 75l-56 -75h-147z" />
    <glyph glyph-name="Edieresis" unicode="&#xcb;" horiz-adv-x="500" 
d="M452 700v-162q-83 0 -124 -9t-63.5 -31t-45.5 -72h233v-152h-233q34 -75 73.5 -93.5t159.5 -18.5v-162h-99q-139 0 -229.5 101t-90.5 249t90.5 249t229.5 101h99zM416 730q-35 0 -59.5 24.5t-24.5 59.5t24.5 59.5t59.5 24.5t59.5 -24.5t24.5 -59.5t-24.5 -59.5
t-59.5 -24.5zM187 730q-35 0 -59.5 24.5t-24.5 59.5t24.5 59.5t59.5 24.5t59.5 -24.5t24.5 -59.5t-24.5 -59.5t-59.5 -24.5z" />
    <glyph glyph-name="Igrave" unicode="&#xcc;" horiz-adv-x="278" 
d="M226 700v-700h-174v700h174zM-66 893h208l100 -148h-137z" />
    <glyph glyph-name="Iacute" unicode="&#xcd;" horiz-adv-x="278" 
d="M226 700v-700h-174v700h174zM137 893h208l-171 -148h-137z" />
    <glyph glyph-name="Icircumflex" unicode="&#xce;" horiz-adv-x="278" 
d="M226 700v-700h-174v700h174zM-64 745l121 148h164l122 -148h-149l-55 75l-56 -75h-147z" />
    <glyph glyph-name="Idieresis" unicode="&#xcf;" horiz-adv-x="278" 
d="M226 700v-700h-174v700h174zM253 730q-35 0 -59.5 24.5t-24.5 59.5t24.5 59.5t59.5 24.5t59.5 -24.5t24.5 -59.5t-24.5 -59.5t-59.5 -24.5zM24 730q-35 0 -59.5 24.5t-24.5 59.5t24.5 59.5t59.5 24.5t59.5 -24.5t24.5 -59.5t-24.5 -59.5t-59.5 -24.5z" />
    <glyph glyph-name="Eth" unicode="&#xd0;" horiz-adv-x="667" 
d="M273 0v168q73 0 123 51.5t50 122.5q0 95 -60.5 142.5t-154.5 47.5v-77h91v-168h-91v-287h-174v287h-42v168h42v245h177q183 0 286.5 -101.5t103.5 -254.5q0 -150 -100 -247t-251 -97z" />
    <glyph glyph-name="Ntilde" unicode="&#xd1;" horiz-adv-x="667" 
d="M230 0h-174v616q0 42 29.5 69t73.5 27t72 -17.5t48 -56.5l155 -308h2v370h174v-610q0 -46 -28 -74t-64 -28t-63.5 23t-60.5 87l-162 312h-2v-410zM462 884h79q-15 -133 -131 -133q-30 0 -77 18.5t-63 18.5q-15 0 -26.5 -14t-14.5 -28h-79q5 52 36 94q36 46 87 46
q34 0 82 -19.5t62 -19.5q33 0 45 37z" />
    <glyph glyph-name="Ograve" unicode="&#xd2;" horiz-adv-x="778" 
d="M569 350q0 76 -52 130t-128 54t-128 -54t-52 -130t52 -130t128 -54t128 54t52 130zM745 350q0 -148 -104 -255t-252 -107t-252 107t-104 255t104 255t252 107t252 -107t104 -255zM184 893h208l100 -148h-137z" />
    <glyph glyph-name="Oacute" unicode="&#xd3;" horiz-adv-x="778" 
d="M569 350q0 76 -52 130t-128 54t-128 -54t-52 -130t52 -130t128 -54t128 54t52 130zM745 350q0 -148 -104 -255t-252 -107t-252 107t-104 255t104 255t252 107t252 -107t104 -255zM387 893h208l-171 -148h-137z" />
    <glyph glyph-name="Ocircumflex" unicode="&#xd4;" horiz-adv-x="778" 
d="M569 350q0 76 -52 130t-128 54t-128 -54t-52 -130t52 -130t128 -54t128 54t52 130zM745 350q0 -148 -104 -255t-252 -107t-252 107t-104 255t104 255t252 107t252 -107t104 -255zM186 745l121 148h164l122 -148h-149l-55 75l-56 -75h-147z" />
    <glyph glyph-name="Otilde" unicode="&#xd5;" horiz-adv-x="778" 
d="M569 350q0 76 -52 130t-128 54t-128 -54t-52 -130t52 -130t128 -54t128 54t52 130zM745 350q0 -148 -104 -255t-252 -107t-252 107t-104 255t104 255t252 107t252 -107t104 -255zM505 884h79q-15 -133 -131 -133q-30 0 -77 18.5t-63 18.5q-15 0 -26.5 -14t-14.5 -28h-79
q5 52 36 94q36 46 87 46q34 0 82 -19.5t62 -19.5q33 0 45 37z" />
    <glyph glyph-name="Odieresis" unicode="&#xd6;" horiz-adv-x="778" 
d="M569 350q0 76 -52 130t-128 54t-128 -54t-52 -130t52 -130t128 -54t128 54t52 130zM745 350q0 -148 -104 -255t-252 -107t-252 107t-104 255t104 255t252 107t252 -107t104 -255zM503 730q-35 0 -59.5 24.5t-24.5 59.5t24.5 59.5t59.5 24.5t59.5 -24.5t24.5 -59.5
t-24.5 -59.5t-59.5 -24.5zM274 730q-35 0 -59.5 24.5t-24.5 59.5t24.5 59.5t59.5 24.5t59.5 -24.5t24.5 -59.5t-24.5 -59.5t-59.5 -24.5z" />
    <glyph glyph-name="multiply" unicode="&#xd7;" horiz-adv-x="600" 
d="M218 243l-161 161l84 82l159 -161l161 161l82 -82l-161 -161l161 -161l-82 -82l-161 161l-159 -161l-84 82z" />
    <glyph glyph-name="Oslash" unicode="&#xd8;" horiz-adv-x="778" 
d="M238 251l233 263q-37 20 -82 20q-76 0 -128 -54t-52 -130q0 -55 29 -99zM4 -12l114 128q-85 101 -85 234q0 148 104 255t252 107q110 0 201 -64l57 64h135l-118 -133q81 -99 81 -229q0 -148 -104 -255t-252 -107q-106 0 -197 60l-54 -60h-134zM543 444l-231 -260
q34 -18 77 -18q76 0 128 54t52 130q0 53 -26 94z" />
    <glyph glyph-name="Ugrave" unicode="&#xd9;" horiz-adv-x="611" 
d="M50 700h174v-461q0 -83 81 -83t81 83v461h174v-447q0 -121 -68 -193t-187 -72t-187 72t-68 193v447zM101 893h208l100 -148h-137z" />
    <glyph glyph-name="Uacute" unicode="&#xda;" horiz-adv-x="611" 
d="M50 700h174v-461q0 -83 81 -83t81 83v461h174v-447q0 -121 -68 -193t-187 -72t-187 72t-68 193v447zM304 893h208l-171 -148h-137z" />
    <glyph glyph-name="Ucircumflex" unicode="&#xdb;" horiz-adv-x="611" 
d="M50 700h174v-461q0 -83 81 -83t81 83v461h174v-447q0 -121 -68 -193t-187 -72t-187 72t-68 193v447zM103 745l121 148h164l122 -148h-149l-55 75l-56 -75h-147z" />
    <glyph glyph-name="Udieresis" unicode="&#xdc;" horiz-adv-x="611" 
d="M50 700h174v-461q0 -83 81 -83t81 83v461h174v-447q0 -121 -68 -193t-187 -72t-187 72t-68 193v447zM420 730q-35 0 -59.5 24.5t-24.5 59.5t24.5 59.5t59.5 24.5t59.5 -24.5t24.5 -59.5t-24.5 -59.5t-59.5 -24.5zM191 730q-35 0 -59.5 24.5t-24.5 59.5t24.5 59.5
t59.5 24.5t59.5 -24.5t24.5 -59.5t-24.5 -59.5t-59.5 -24.5z" />
    <glyph glyph-name="Yacute" unicode="&#xdd;" 
d="M369 0h-174v250q-76 23 -113 83q-32 51 -32 119v248h174v-232q0 -68 54 -68t54 68v232h174v-248q0 -72 -34.5 -125.5t-102.5 -76.5v-250zM270 893h208l-171 -148h-137z" />
    <glyph glyph-name="Thorn" unicode="&#xde;" 
d="M49 700h174v-112q31 10 75 10q99 0 168 -66.5t69 -169.5q0 -111 -64 -178.5t-175 -67.5h-44v162q57 0 83 16.5t26 67.5q0 31 -20 52.5t-53 21.5q-30 0 -47.5 -19t-17.5 -49v-368h-174v700z" />
    <glyph glyph-name="germandbls" unicode="&#xdf;" horiz-adv-x="611" 
d="M255 0v146h83q37 0 61 17t24 47q0 26 -25.5 56t-56 51.5t-56 46t-25.5 40.5q0 14 32 48t32 66q0 21 -15 36.5t-39 15.5q-21 0 -38 -15.5t-17 -42.5v-512h-154v344h-59v146h59q0 106 54.5 161t156.5 55q88 0 144 -41t56 -121q0 -65 -54 -111q41 -25 68 -45.5t50.5 -48
t35 -61.5t11.5 -76q0 -95 -63.5 -148.5t-169.5 -53.5h-95z" />
    <glyph glyph-name="agrave" unicode="&#xe0;" horiz-adv-x="611" 
d="M570 0h-160v224q0 128 -113 128q-44 0 -77 -30.5t-33 -75.5q0 -52 32 -82t74 -30q41 0 77 14v-132q-40 -28 -109 -28q-86 0 -160 69t-74 185q0 110 75.5 183t191.5 73q119 0 197.5 -62.5t78.5 -173.5v-262zM101 707h208l100 -148h-137z" />
    <glyph glyph-name="aacute" unicode="&#xe1;" horiz-adv-x="611" 
d="M570 0h-160v224q0 128 -113 128q-44 0 -77 -30.5t-33 -75.5q0 -52 32 -82t74 -30q41 0 77 14v-132q-40 -28 -109 -28q-86 0 -160 69t-74 185q0 110 75.5 183t191.5 73q119 0 197.5 -62.5t78.5 -173.5v-262zM304 707h208l-171 -148h-137z" />
    <glyph glyph-name="acircumflex" unicode="&#xe2;" horiz-adv-x="611" 
d="M570 0h-160v224q0 128 -113 128q-44 0 -77 -30.5t-33 -75.5q0 -52 32 -82t74 -30q41 0 77 14v-132q-40 -28 -109 -28q-86 0 -160 69t-74 185q0 110 75.5 183t191.5 73q119 0 197.5 -62.5t78.5 -173.5v-262zM103 559l121 148h164l122 -148h-149l-55 75l-56 -75h-147z" />
    <glyph glyph-name="atilde" unicode="&#xe3;" horiz-adv-x="611" 
d="M570 0h-160v224q0 128 -113 128q-44 0 -77 -30.5t-33 -75.5q0 -52 32 -82t74 -30q41 0 77 14v-132q-40 -28 -109 -28q-86 0 -160 69t-74 185q0 110 75.5 183t191.5 73q119 0 197.5 -62.5t78.5 -173.5v-262zM422 698h79q-15 -133 -131 -133q-30 0 -77 18.5t-63 18.5
q-15 0 -26.5 -14t-14.5 -28h-79q5 52 36 94q36 46 87 46q34 0 82 -19.5t62 -19.5q33 0 45 37z" />
    <glyph glyph-name="adieresis" unicode="&#xe4;" horiz-adv-x="611" 
d="M570 0h-160v224q0 128 -113 128q-44 0 -77 -30.5t-33 -75.5q0 -52 32 -82t74 -30q41 0 77 14v-132q-40 -28 -109 -28q-86 0 -160 69t-74 185q0 110 75.5 183t191.5 73q119 0 197.5 -62.5t78.5 -173.5v-262zM420 544q-35 0 -59.5 24.5t-24.5 59.5t24.5 59.5t59.5 24.5
t59.5 -24.5t24.5 -59.5t-24.5 -59.5t-59.5 -24.5zM191 544q-35 0 -59.5 24.5t-24.5 59.5t24.5 59.5t59.5 24.5t59.5 -24.5t24.5 -59.5t-24.5 -59.5t-59.5 -24.5z" />
    <glyph glyph-name="aring" unicode="&#xe5;" horiz-adv-x="611" 
d="M570 0h-160v224q0 128 -113 128q-44 0 -77 -30.5t-33 -75.5q0 -52 32 -82t74 -30q41 0 77 14v-132q-40 -28 -109 -28q-86 0 -160 69t-74 185q0 110 75.5 183t191.5 73q119 0 197.5 -62.5t78.5 -173.5v-262zM257 668q0 -19 15 -33.5t34 -14.5t34 14.5t15 33.5t-15 33.5
t-34 14.5t-34 -14.5t-15 -33.5zM193 668q0 46 33.5 79t79.5 33t79.5 -33t33.5 -79t-33.5 -79t-79.5 -33t-79.5 33t-33.5 79z" />
    <glyph glyph-name="ae" unicode="&#xe6;" horiz-adv-x="889" 
d="M849 304l-254 -112l-44 95l116 58q-16 31 -72 31q-53 0 -78.5 -35t-25.5 -90q0 -60 33.5 -96.5t88.5 -36.5q28 0 58 14.5t41.5 24.5t45.5 40l101 -79q-55 -64 -112.5 -97t-139.5 -33q-128 0 -202 80q-76 -80 -190 -80q-90 0 -137.5 42t-47.5 99q0 30 11 55.5t27 43.5
t42.5 33.5t49.5 25t56.5 18t54 13t51.5 9.5q-5 26 -32 37.5t-57 11.5q-51 0 -128 -34l-46 113q86 43 181 43q120 0 185 -73q83 73 187 73q86 0 146.5 -54t90.5 -140zM335 191l4 47q-155 -15 -155 -87q0 -18 16 -29.5t36 -11.5q39 0 67.5 23.5t31.5 57.5z" />
    <glyph glyph-name="ccedilla" unicode="&#xe7;" horiz-adv-x="389" 
d="M350 486v-145h-68q-49 0 -75 -26t-26 -72t26 -72.5t75 -26.5h68v-144h-97h-12l-30 -49q16 4 37 4q37 0 67 -20.5t30 -55.5q0 -47 -42.5 -72t-92.5 -25q-53 0 -124 29l21 46q61 -21 86 -21q23 0 37.5 11.5t14.5 28.5q0 13 -15.5 23t-32.5 10q-5 0 -35 -10l-25 24l52 86
q-73 22 -120.5 83.5t-47.5 150.5q0 109 70 176t163 67h96z" />
    <glyph glyph-name="egrave" unicode="&#xe8;" 
d="M513 343l-241 -166l-61 96l131 86q-27 17 -62 17q-46 0 -74 -38.5t-28 -86.5t30.5 -85.5t77.5 -37.5q43 0 83.5 32.5t59.5 76.5l115 -59q-35 -85 -107.5 -137.5t-161.5 -52.5q-101 0 -176 75.5t-75 179.5t75 179.5t176 75.5q153 0 238 -155zM73 707h208l100 -148h-137z
" />
    <glyph glyph-name="eacute" unicode="&#xe9;" 
d="M513 343l-241 -166l-61 96l131 86q-27 17 -62 17q-46 0 -74 -38.5t-28 -86.5t30.5 -85.5t77.5 -37.5q43 0 83.5 32.5t59.5 76.5l115 -59q-35 -85 -107.5 -137.5t-161.5 -52.5q-101 0 -176 75.5t-75 179.5t75 179.5t176 75.5q153 0 238 -155zM276 707h208l-171 -148h-137z
" />
    <glyph glyph-name="ecircumflex" unicode="&#xea;" 
d="M513 343l-241 -166l-61 96l131 86q-27 17 -62 17q-46 0 -74 -38.5t-28 -86.5t30.5 -85.5t77.5 -37.5q43 0 83.5 32.5t59.5 76.5l115 -59q-35 -85 -107.5 -137.5t-161.5 -52.5q-101 0 -176 75.5t-75 179.5t75 179.5t176 75.5q153 0 238 -155zM75 559l121 148h164l122 -148
h-149l-55 75l-56 -75h-147z" />
    <glyph glyph-name="edieresis" unicode="&#xeb;" 
d="M513 343l-241 -166l-61 96l131 86q-27 17 -62 17q-46 0 -74 -38.5t-28 -86.5t30.5 -85.5t77.5 -37.5q43 0 83.5 32.5t59.5 76.5l115 -59q-35 -85 -107.5 -137.5t-161.5 -52.5q-101 0 -176 75.5t-75 179.5t75 179.5t176 75.5q153 0 238 -155zM392 544q-35 0 -59.5 24.5
t-24.5 59.5t24.5 59.5t59.5 24.5t59.5 -24.5t24.5 -59.5t-24.5 -59.5t-59.5 -24.5zM163 544q-35 0 -59.5 24.5t-24.5 59.5t24.5 59.5t59.5 24.5t59.5 -24.5t24.5 -59.5t-24.5 -59.5t-59.5 -24.5z" />
    <glyph glyph-name="igrave" unicode="&#xec;" horiz-adv-x="278" 
d="M219 486v-486h-160v486h160zM-66 707h208l100 -148h-137z" />
    <glyph glyph-name="iacute" unicode="&#xed;" horiz-adv-x="278" 
d="M219 486v-486h-160v486h160zM137 707h208l-171 -148h-137z" />
    <glyph glyph-name="icircumflex" unicode="&#xee;" horiz-adv-x="278" 
d="M219 486v-486h-160v486h160zM-64 559l121 148h164l122 -148h-149l-55 75l-56 -75h-147z" />
    <glyph glyph-name="idieresis" unicode="&#xef;" horiz-adv-x="278" 
d="M219 486v-486h-160v486h160zM253 544q-35 0 -59.5 24.5t-24.5 59.5t24.5 59.5t59.5 24.5t59.5 -24.5t24.5 -59.5t-24.5 -59.5t-59.5 -24.5zM24 544q-35 0 -59.5 24.5t-24.5 59.5t24.5 59.5t59.5 24.5t59.5 -24.5t24.5 -59.5t-24.5 -59.5t-59.5 -24.5z" />
    <glyph glyph-name="eth" unicode="&#xf0;" 
d="M160 630l120 70q32 -21 66 -50l99 48l34 -54l-85 -41q135 -148 135 -330q0 -124 -74 -204.5t-177 -80.5q-101 0 -176 75.5t-75 179.5q0 99 66 170t171 71q40 -62 67 -153q-34 15 -53 15q-41 0 -69 -30t-28 -73t28 -73t69 -30q43 0 70 34t27 94q0 153 -108 274l-92 -44
l-34 54l78 37q-32 27 -59 41z" />
    <glyph glyph-name="ntilde" unicode="&#xf1;" horiz-adv-x="500" 
d="M195 0h-154v278q0 98 55 159t154 61t154 -61t55 -159v-278h-154v278q0 32 -15 50t-40 18t-40 -18t-15 -50v-278zM366 698h79q-15 -133 -131 -133q-30 0 -77 18.5t-63 18.5q-15 0 -26.5 -14t-14.5 -28h-79q5 52 36 94q36 46 87 46q34 0 82 -19.5t62 -19.5q33 0 45 37z" />
    <glyph glyph-name="ograve" unicode="&#xf2;" 
d="M181 243q0 -43 28 -73t69 -30t69 30t28 73t-28 73t-69 30t-69 -30t-28 -73zM27 243q0 104 75 179.5t176 75.5t176 -75.5t75 -179.5t-75 -179.5t-176 -75.5t-176 75.5t-75 179.5zM73 707h208l100 -148h-137z" />
    <glyph glyph-name="oacute" unicode="&#xf3;" 
d="M181 243q0 -43 28 -73t69 -30t69 30t28 73t-28 73t-69 30t-69 -30t-28 -73zM27 243q0 104 75 179.5t176 75.5t176 -75.5t75 -179.5t-75 -179.5t-176 -75.5t-176 75.5t-75 179.5zM276 707h208l-171 -148h-137z" />
    <glyph glyph-name="ocircumflex" unicode="&#xf4;" 
d="M181 243q0 -43 28 -73t69 -30t69 30t28 73t-28 73t-69 30t-69 -30t-28 -73zM27 243q0 104 75 179.5t176 75.5t176 -75.5t75 -179.5t-75 -179.5t-176 -75.5t-176 75.5t-75 179.5zM75 559l121 148h164l122 -148h-149l-55 75l-56 -75h-147z" />
    <glyph glyph-name="otilde" unicode="&#xf5;" 
d="M181 243q0 -43 28 -73t69 -30t69 30t28 73t-28 73t-69 30t-69 -30t-28 -73zM27 243q0 104 75 179.5t176 75.5t176 -75.5t75 -179.5t-75 -179.5t-176 -75.5t-176 75.5t-75 179.5zM394 698h79q-15 -133 -131 -133q-30 0 -77 18.5t-63 18.5q-15 0 -26.5 -14t-14.5 -28h-79
q5 52 36 94q36 46 87 46q34 0 82 -19.5t62 -19.5q33 0 45 37z" />
    <glyph glyph-name="odieresis" unicode="&#xf6;" 
d="M181 243q0 -43 28 -73t69 -30t69 30t28 73t-28 73t-69 30t-69 -30t-28 -73zM27 243q0 104 75 179.5t176 75.5t176 -75.5t75 -179.5t-75 -179.5t-176 -75.5t-176 75.5t-75 179.5zM392 544q-35 0 -59.5 24.5t-24.5 59.5t24.5 59.5t59.5 24.5t59.5 -24.5t24.5 -59.5
t-24.5 -59.5t-59.5 -24.5zM163 544q-35 0 -59.5 24.5t-24.5 59.5t24.5 59.5t59.5 24.5t59.5 -24.5t24.5 -59.5t-24.5 -59.5t-59.5 -24.5z" />
    <glyph glyph-name="divide" unicode="&#xf7;" horiz-adv-x="600" 
d="M543 185h-486v116h486v-116zM300 531q36 0 62.5 -26t26.5 -63t-26.5 -63t-62.5 -26t-62.5 26t-26.5 63t26.5 63t62.5 26zM300 133q36 0 62.5 -26t26.5 -63t-26.5 -63t-62.5 -26t-62.5 26t-26.5 63t26.5 63t62.5 26z" />
    <glyph glyph-name="oslash" unicode="&#xf8;" 
d="M368 280l-110 -137q9 -3 20 -3q41 0 69 30t28 73q0 20 -7 37zM192 196l119 144q-15 6 -33 6q-41 0 -69 -30t-28 -73q0 -25 11 -47zM119 -30h-117l87 110q-62 68 -62 163q0 104 75 179.5t176 75.5q62 0 117 -32l42 52h123l-91 -114q60 -66 60 -161q0 -104 -75 -179.5
t-176 -75.5q-64 0 -119 32z" />
    <glyph glyph-name="ugrave" unicode="&#xf9;" horiz-adv-x="500" 
d="M195 486v-278q0 -32 15 -50t40 -18t40 18t15 50v278h154v-278q0 -98 -55 -159t-154 -61t-154 61t-55 159v278h154zM45 707h208l100 -148h-137z" />
    <glyph glyph-name="uacute" unicode="&#xfa;" horiz-adv-x="500" 
d="M195 486v-278q0 -32 15 -50t40 -18t40 18t15 50v278h154v-278q0 -98 -55 -159t-154 -61t-154 61t-55 159v278h154zM248 707h208l-171 -148h-137z" />
    <glyph glyph-name="ucircumflex" unicode="&#xfb;" horiz-adv-x="500" 
d="M195 486v-278q0 -32 15 -50t40 -18t40 18t15 50v278h154v-278q0 -98 -55 -159t-154 -61t-154 61t-55 159v278h154zM47 559l121 148h164l122 -148h-149l-55 75l-56 -75h-147z" />
    <glyph glyph-name="udieresis" unicode="&#xfc;" horiz-adv-x="500" 
d="M195 486v-278q0 -32 15 -50t40 -18t40 18t15 50v278h154v-278q0 -98 -55 -159t-154 -61t-154 61t-55 159v278h154zM364 544q-35 0 -59.5 24.5t-24.5 59.5t24.5 59.5t59.5 24.5t59.5 -24.5t24.5 -59.5t-24.5 -59.5t-59.5 -24.5zM135 544q-35 0 -59.5 24.5t-24.5 59.5
t24.5 59.5t59.5 24.5t59.5 -24.5t24.5 -59.5t-24.5 -59.5t-59.5 -24.5z" />
    <glyph glyph-name="yacute" unicode="&#xfd;" horiz-adv-x="500" 
d="M332 -210h-160v206q-69 21 -101 67q-31 44 -31 111v312h154v-282q0 -68 58 -68q32 0 43 19t11 56v275h154v-312q0 -69 -34.5 -114t-93.5 -64v-206zM248 707h208l-171 -148h-137z" />
    <glyph glyph-name="thorn" unicode="&#xfe;" horiz-adv-x="611" 
d="M201 -210h-160v910h160v-222q51 20 116 20q116 0 191.5 -73t75.5 -183q0 -118 -78 -186t-181 -68q-48 0 -78 12v148q24 -14 67 -14q47 0 78.5 30.5t31.5 78.5t-31.5 78.5t-78.5 30.5q-55 0 -84 -35.5t-29 -93.5v-433z" />
    <glyph glyph-name="ydieresis" unicode="&#xff;" horiz-adv-x="500" 
d="M332 -210h-160v206q-69 21 -101 67q-31 44 -31 111v312h154v-282q0 -68 58 -68q32 0 43 19t11 56v275h154v-312q0 -69 -34.5 -114t-93.5 -64v-206zM364 544q-35 0 -59.5 24.5t-24.5 59.5t24.5 59.5t59.5 24.5t59.5 -24.5t24.5 -59.5t-24.5 -59.5t-59.5 -24.5zM135 544
q-35 0 -59.5 24.5t-24.5 59.5t24.5 59.5t59.5 24.5t59.5 -24.5t24.5 -59.5t-24.5 -59.5t-59.5 -24.5z" />
    <glyph glyph-name="dotlessi" unicode="&#x131;" horiz-adv-x="278" 
d="M219 486v-486h-160v486h160z" />
    <glyph glyph-name="Lslash" unicode="&#x141;" horiz-adv-x="444" 
d="M7 247v162l44 17v274h174v-204l110 44v-162l-110 -44v-92q0 -43 18.5 -58.5t70.5 -15.5h119v-168h-133q-129 0 -189 53t-60 173v38z" />
    <glyph glyph-name="lslash" unicode="&#x142;" horiz-adv-x="278" 
d="M219 323v-323h-160v255l-54 -23v152l54 23v293h160v-225l54 23v-152z" />
    <glyph glyph-name="OE" unicode="&#x152;" horiz-adv-x="1000" 
d="M952 700v-158h-63q-124 0 -176 -112h239v-158h-239q52 -112 163 -112h76v-158h-72q-87 0 -147 23t-118 80q-112 -117 -251 -117q-148 0 -239.5 105.5t-91.5 256.5t91.5 256.5t239.5 105.5q146 0 251 -115q60 57 115 80t139 23h83zM207 350q0 -80 43 -132t122 -52
q71 0 118 55.5t47 128.5t-47 128.5t-118 55.5q-79 0 -122 -52t-43 -132z" />
    <glyph glyph-name="oe" unicode="&#x153;" horiz-adv-x="889" 
d="M608 192l-44 95l116 58q-16 31 -72 31q-40 0 -66.5 -37t-26.5 -88q0 -59 33 -96t78 -37q28 0 58 14.5t41.5 24.5t45.5 40l101 -79q-55 -64 -112.5 -97t-139.5 -33q-119 0 -178 67q-75 -67 -187 -67q-89 0 -163.5 76.5t-74.5 178.5t74.5 178.5t163.5 76.5q115 0 188 -76
q72 76 182 76q86 0 146.5 -54t90.5 -140zM266 346q-40 0 -67.5 -30.5t-27.5 -72.5t27.5 -72.5t67.5 -30.5t67.5 30.5t27.5 72.5t-27.5 72.5t-67.5 30.5z" />
    <glyph glyph-name="Scaron" unicode="&#x160;" horiz-adv-x="500" 
d="M424 700v-162h-176q-40 0 -40 -29q0 -16 27 -37.5t65 -46.5t76.5 -55t65.5 -72t27 -88q0 -32 -4 -57t-19 -55t-40 -50.5t-72.5 -34t-111.5 -13.5h-187v162h181q65 0 65 38q0 20 -26 43t-62.5 47.5t-73.5 53t-63 70t-26 88.5q0 102 60.5 150t151.5 48h182zM448 893
l-121 -148h-164l-122 148h149l55 -75l56 75h147z" />
    <glyph glyph-name="scaron" unicode="&#x161;" horiz-adv-x="389" 
d="M21 0v136h154q28 0 28 22q0 12 -18 21.5t-44 19.5t-52.5 25.5t-44.5 47t-18 76.5q0 65 47 101.5t109 36.5h156v-130h-125q-14 0 -23.5 -6.5t-9.5 -16.5t19.5 -20.5t47 -22.5t54.5 -28t46.5 -44.5t19.5 -64.5q0 -74 -44 -113.5t-123 -39.5h-179zM399 707l-121 -148h-164
l-122 148h149l55 -75l56 75h147z" />
    <glyph glyph-name="Ydieresis" unicode="&#x178;" 
d="M369 0h-174v250q-76 23 -113 83q-32 51 -32 119v248h174v-232q0 -68 54 -68t54 68v232h174v-248q0 -72 -34.5 -125.5t-102.5 -76.5v-250zM386 730q-35 0 -59.5 24.5t-24.5 59.5t24.5 59.5t59.5 24.5t59.5 -24.5t24.5 -59.5t-24.5 -59.5t-59.5 -24.5zM157 730
q-35 0 -59.5 24.5t-24.5 59.5t24.5 59.5t59.5 24.5t59.5 -24.5t24.5 -59.5t-24.5 -59.5t-59.5 -24.5z" />
    <glyph glyph-name="Zcaron" unicode="&#x17d;" 
d="M517 168v-168h-366q-51 0 -82 28.5t-31 77.5q0 9 1.5 18t6 20t7.5 18.5t11.5 21t12 19t14.5 22.5t14 22l183 285h-211v168h306q68 0 97.5 -26.5t29.5 -79.5q0 -19 -6.5 -38t-13 -31.5t-21.5 -36.5l-200 -320h248zM476 893l-121 -148h-164l-122 148h149l55 -75l56 75h147z
" />
    <glyph glyph-name="zcaron" unicode="&#x17e;" horiz-adv-x="444" 
d="M41 346v140h253q70 0 97 -24t27 -71q0 -31 -36 -74l-147 -171h182v-146h-313q-45 0 -68 24.5t-23 67.5q0 38 25 66l171 188h-168zM426 707l-121 -148h-164l-122 148h149l55 -75l56 75h147z" />
    <glyph glyph-name="florin" unicode="&#x192;" 
d="M9 -192l23 144q30 -12 64 -12q38 0 57 26.5t24 82.5l23 243h-128v146h143q6 110 54.5 186t136.5 76q80 0 140 -28l-21 -140q-37 22 -71 22q-22 0 -36.5 -10.5t-21 -30.5t-9.5 -36t-4 -39h136v-146h-149l-31 -267q-14 -118 -65.5 -180.5t-153.5 -62.5q-59 0 -111 26z" />
    <glyph glyph-name="circumflex" unicode="&#x2c6;" horiz-adv-x="278" 
d="M-64 559l121 148h164l122 -148h-149l-55 75l-56 -75h-147z" />
    <glyph glyph-name="caron" unicode="&#x2c7;" horiz-adv-x="278" 
d="M343 707l-121 -148h-164l-122 148h149l55 -75l56 75h147z" />
    <glyph glyph-name="uni02C9" unicode="&#x2c9;" horiz-adv-x="278" 
d="M328 588h-377v90h377v-90z" />
    <glyph glyph-name="breve" unicode="&#x2d8;" horiz-adv-x="278" 
d="M-42 712h79q3 -36 35 -51q24 -12 65 -12q45 0 70.5 12t35.5 51h78q-4 -74 -55.5 -113.5t-127.5 -39.5q-172 0 -180 153z" />
    <glyph glyph-name="dotaccent" unicode="&#x2d9;" horiz-adv-x="278" 
d="M139 544q-35 0 -59.5 24.5t-24.5 59.5t24.5 59.5t59.5 24.5t59.5 -24.5t24.5 -59.5t-24.5 -59.5t-59.5 -24.5z" />
    <glyph glyph-name="ring" unicode="&#x2da;" horiz-adv-x="278" 
d="M90 668q0 -19 15 -33.5t34 -14.5t34 14.5t15 33.5t-15 33.5t-34 14.5t-34 -14.5t-15 -33.5zM26 668q0 46 33.5 79t79.5 33t79.5 -33t33.5 -79t-33.5 -79t-79.5 -33t-79.5 33t-33.5 79z" />
    <glyph glyph-name="ogonek" unicode="&#x2db;" horiz-adv-x="278" 
d="M265 -123l20 -36q-89 -59 -151 -59q-52 0 -83 23.5t-31 67.5q0 109 238 148v-16q-53 -16 -95.5 -46t-42.5 -75q0 -23 13.5 -35.5t35.5 -12.5q33 0 96 41z" />
    <glyph glyph-name="tilde" unicode="&#x2dc;" horiz-adv-x="278" 
d="M255 698h79q-15 -133 -131 -133q-30 0 -77 18.5t-63 18.5q-15 0 -26.5 -14t-14.5 -28h-79q5 52 36 94q36 46 87 46q34 0 82 -19.5t62 -19.5q33 0 45 37z" />
    <glyph glyph-name="hungarumlaut" unicode="&#x2dd;" horiz-adv-x="278" 
d="M-94 558l99 148h170l-123 -148h-146zM116 558l99 148h210l-173 -148h-136z" />
    <glyph glyph-name="uni03A9" unicode="&#x3a9;" horiz-adv-x="695" 
d="M157 127v3q-113 111 -113 264q0 128 85 221.5t220 93.5q72 0 131 -29t94 -75t54 -99t19 -105q0 -83 -32.5 -153.5t-81.5 -117.5v-3h129v-127h-276v94q102 65 102 272q0 93 -37 152t-103 59q-65 0 -104.5 -60t-39.5 -157q0 -101 29 -170.5t74 -95.5v-94h-277v127h127z" />
    <glyph glyph-name="uni03BC" unicode="&#x3bc;" horiz-adv-x="500" 
d="M305 486h154v-278q0 -98 -55 -159t-154 -61q-36 0 -55 6v-204h-154v696h154v-278q0 -32 15 -50t40 -18t40 18t15 50v278z" />
    <glyph glyph-name="pi" unicode="&#x3c0;" horiz-adv-x="616" 
d="M594 394h-64v-245q0 -91 12 -149h-152q-18 33 -18 144v250h-111q-3 -83 -19 -200.5t-39 -193.5h-152q23 90 39 205.5t17 188.5q-57 0 -90 -9l-16 105q44 37 175 37h429z" />
    <glyph glyph-name="endash" unicode="&#x2013;" horiz-adv-x="500" 
d="M500 189h-500v108h500v-108z" />
    <glyph glyph-name="emdash" unicode="&#x2014;" horiz-adv-x="1000" 
d="M1000 189h-1000v108h1000v-108z" />
    <glyph glyph-name="quoteleft" unicode="&#x2018;" horiz-adv-x="222" 
d="M180 472h-101l-49 228h131z" />
    <glyph glyph-name="quoteright" unicode="&#x2019;" horiz-adv-x="222" 
d="M143 472h-101l19 228h131z" />
    <glyph glyph-name="quotesinglbase" unicode="&#x201a;" horiz-adv-x="222" 
d="M143 -132h-101l19 228h131z" />
    <glyph glyph-name="quotedblleft" unicode="&#x201c;" horiz-adv-x="444" 
d="M195 472h-101l-49 228h131zM399 472h-101l-49 228h131z" />
    <glyph glyph-name="quotedblright" unicode="&#x201d;" horiz-adv-x="444" 
d="M350 472h-101l19 228h131zM146 472h-101l19 228h131z" />
    <glyph glyph-name="quotedblbase" unicode="&#x201e;" horiz-adv-x="444" 
d="M146 -132h-101l19 228h131zM350 -132h-101l19 228h131z" />
    <glyph glyph-name="dagger" unicode="&#x2020;" 
d="M72 409v147l164 -31l-30 175h144l-30 -175l164 31v-147l-164 30q0 -23 15 -81.5t15 -65.5q0 -23 -8.5 -64.5t-17.5 -127t-11 -212.5h-70q-2 127 -11 212.5t-17.5 127t-8.5 64.5q0 7 15 65.5t15 81.5z" />
    <glyph glyph-name="daggerdbl" unicode="&#x2021;" 
d="M236 439l-164 -30v147l164 -31l-30 175h144l-30 -175l164 31v-147l-164 30q0 -23 15 -81.5t15 -65.5q0 -6 -15 -63.5t-15 -81.5l164 30v-147l-164 31l30 -175h-144l30 175l-164 -31v147l164 -30q0 24 -15 81.5t-15 63.5q0 7 15 65.5t15 81.5z" />
    <glyph glyph-name="bullet" unicode="&#x2022;" horiz-adv-x="500" 
d="M75 350q0 73 51 124t124 51t124 -51t51 -124t-51 -124t-124 -51t-124 51t-51 124z" />
    <glyph glyph-name="ellipsis" unicode="&#x2026;" horiz-adv-x="1000" 
d="M167 -12q-43 0 -72.5 30t-29.5 72t29.5 72t72.5 30t72.5 -30t29.5 -72t-29.5 -72t-72.5 -30zM500 -12q-43 0 -72.5 30t-29.5 72t29.5 72t72.5 30t72.5 -30t29.5 -72t-29.5 -72t-72.5 -30zM833 -12q-43 0 -72.5 30t-29.5 72t29.5 72t72.5 30t72.5 -30t29.5 -72t-29.5 -72
t-72.5 -30z" />
    <glyph glyph-name="perthousand" unicode="&#x2030;" horiz-adv-x="1000" 
d="M841 100q24 0 40 16t16 40t-16 40t-40 16t-40 -16t-16 -40t16 -40t40 -16zM147 0h-106l441 700h107zM159 488q24 0 40 16t16 40t-16 40t-40 16t-40 -16t-16 -40t16 -40t40 -16zM841 0q-65 0 -110.5 45.5t-45.5 110.5t45.5 110.5t110.5 45.5t110.5 -45.5t45.5 -110.5
t-45.5 -110.5t-110.5 -45.5zM159 388q-65 0 -110.5 45.5t-45.5 110.5t45.5 110.5t110.5 45.5t110.5 -45.5t45.5 -110.5t-45.5 -110.5t-110.5 -45.5zM479 0q-65 0 -110.5 45.5t-45.5 110.5t45.5 110.5t110.5 45.5t110.5 -45.5t45.5 -110.5t-45.5 -110.5t-110.5 -45.5z
M479 100q24 0 40 16t16 40t-16 40t-40 16t-40 -16t-16 -40t16 -40t40 -16z" />
    <glyph glyph-name="guilsinglleft" unicode="&#x2039;" horiz-adv-x="333" 
d="M278 89h-120l-120 154l120 154h122l-120 -154z" />
    <glyph glyph-name="guilsinglright" unicode="&#x203a;" horiz-adv-x="333" 
d="M175 89h-120l118 154l-120 154h122l120 -154z" />
    <glyph glyph-name="fraction" unicode="&#x2044;" horiz-adv-x="167" 
d="M-60 -12h-107l394 724h107z" />
    <glyph glyph-name="Euro" unicode="&#x20ac;" 
d="M446 379h-170q-1 -9 -1 -29v-13h171v-98h-147q43 -81 150 -81h73v-158h-105q-110 0 -193.5 66.5t-114.5 172.5h-80v98h64v13q0 19 1 29h-65v98h85q35 100 116 161.5t187 61.5h105v-158h-73q-92 0 -138 -65h135v-98z" />
    <glyph glyph-name="afii61289" unicode="&#x2113;" horiz-adv-x="528" 
d="M451 204l61 -66q-74 -147 -219 -147q-86 0 -131.5 42t-56.5 110q0 6 -1 10q-6 -5 -22.5 -17.5t-25.5 -19.5l-37 82q12 10 41 32.5t43 35.5v239q0 127 53 194.5t139 67.5q74 0 111.5 -52t37.5 -134q0 -152 -190 -334l1 -48q2 -38 22.5 -60.5t53.5 -22.5q63 0 120 88z
M254 505v-117q43 51 68.5 105.5t25.5 95.5q0 68 -43 68q-51 0 -51 -152z" />
    <glyph glyph-name="trademark" unicode="&#x2122;" horiz-adv-x="1000" 
d="M380 700v-90h-112v-322h-120v322h-112v90h344zM630 700l89 -240l89 240h156v-412h-108v270h-2l-91 -270h-88l-91 270h-2v-270h-108v412h156z" />
    <glyph glyph-name="Omega" unicode="&#x2126;" horiz-adv-x="695" 
d="M157 127v3q-113 111 -113 264q0 128 85 221.5t220 93.5q72 0 131 -29t94 -75t54 -99t19 -105q0 -83 -32.5 -153.5t-81.5 -117.5v-3h129v-127h-276v94q102 65 102 272q0 93 -37 152t-103 59q-65 0 -104.5 -60t-39.5 -157q0 -101 29 -170.5t74 -95.5v-94h-277v127h127z" />
    <glyph glyph-name="estimated" unicode="&#x212e;" horiz-adv-x="873" 
d="M838 340h-651q-5 0 -5 -4v-197q0 -13 8 -23q104 -107 246 -107q155 0 260 120h57q-54 -65 -138 -102.5t-180 -37.5q-166 0 -283.5 105.5t-117.5 254.5q0 151 117.5 257t283.5 106q167 0 285 -106t118 -257v-9zM690 366v198q0 14 -9 23q-106 103 -245 103
q-141 0 -245 -106q-9 -9 -9 -25v-193q0 -7 5 -7h499q4 0 4 7z" />
    <glyph glyph-name="partialdiff" unicode="&#x2202;" horiz-adv-x="588" 
d="M103 615l-41 118q79 58 192 58q123 0 205 -100.5t82 -281.5q0 -193 -78 -304.5t-213 -111.5q-69 0 -120 39t-73.5 92t-22.5 109q0 120 61.5 192.5t155.5 72.5q50 0 85 -22.5t50 -46.5h1q1 6 1 27q0 79 -42.5 142.5t-113.5 63.5q-68 0 -129 -47zM266 123h1q42 0 71 57.5
t36 123.5q-6 23 -30.5 46t-59.5 23q-42 0 -68.5 -44t-26.5 -103q0 -43 21.5 -73t55.5 -30z" />
    <glyph glyph-name="Delta" unicode="&#x2206;" horiz-adv-x="657" 
d="M23 0v88l215 623h188l206 -621v-90h-609zM186 126h277l-86 241q-7 25 -26 89t-24 86h-3q-4 -17 -21.5 -75.5t-24.5 -85.5z" />
    <glyph glyph-name="product" unicode="&#x220f;" horiz-adv-x="729" 
d="M705 555h-96v-651h-156v651h-178v-651h-155v651h-97v143h682v-143z" />
    <glyph glyph-name="summation" unicode="&#x2211;" horiz-adv-x="557" 
d="M540 -97h-517v99l224 300l-217 286v110h493v-133h-285v-3l184 -233l-208 -277v-3h326v-146z" />
    <glyph glyph-name="minus" unicode="&#x2212;" horiz-adv-x="600" 
d="M543 185h-486v116h486v-116z" />
    <glyph glyph-name="uni2215" unicode="&#x2215;" horiz-adv-x="167" 
d="M-60 -12h-107l394 724h107z" />
    <glyph glyph-name="uni2219" unicode="&#x2219;" horiz-adv-x="278" 
d="M139 141q-43 0 -72.5 30t-29.5 72t29.5 72t72.5 30t72.5 -30t29.5 -72t-29.5 -72t-72.5 -30z" />
    <glyph glyph-name="radical" unicode="&#x221a;" horiz-adv-x="602" 
d="M615 842l-225 -976h-122l-140 422l-74 -30l-24 86l190 77l88 -285q16 -70 22 -95l1 -1l6 40q6 40 11 65l160 697h107z" />
    <glyph glyph-name="infinity" unicode="&#x221e;" horiz-adv-x="775" 
d="M729 288v-1q0 -82 -49.5 -131.5t-115.5 -49.5q-47 0 -89 23t-86 87q-42 -55 -84 -82.5t-98 -27.5q-65 0 -113 49t-48 126q0 79 48.5 128.5t121.5 49.5q53 0 94.5 -26t81.5 -79q2 3 7 8q25 29 42 45.5t53 34t75 17.5q67 0 113.5 -47.5t46.5 -123.5zM217 188h2
q34 0 62.5 23t62.5 66q-21 31 -29 41.5t-26 29t-35 25t-39 6.5q-39 0 -62.5 -27t-23.5 -72q0 -38 25.5 -65t62.5 -27zM561 379h-1q-10 0 -20.5 -3t-18.5 -6t-18.5 -11.5t-16 -12.5t-15.5 -15.5t-13 -15t-13.5 -16.5t-11.5 -14q43 -57 70 -77t63 -20q35 0 57 29.5t22 62.5
q0 42 -23 70.5t-61 28.5z" />
    <glyph glyph-name="integral" unicode="&#x222b;" horiz-adv-x="417" 
d="M391 858l-14 -107q-20 8 -35 8q-32 0 -49 -27q-23 -31 -23 -161q0 -81 7.5 -225.5t7.5 -241.5q0 -133 -32 -199q-41 -84 -145 -84q-56 0 -84 16l18 111q25 -10 42 -10q28 0 41 18q23 33 23 146q0 98 -7.5 247t-7.5 236q0 90 14.5 144t48.5 90q46 50 130 50q36 0 65 -11z
" />
    <glyph glyph-name="approxequal" unicode="&#x2248;" horiz-adv-x="539" 
d="M450 463l53 -50q-25 -49 -62 -78t-76 -29q-47 0 -108 38q-50 33 -82 33q-20 0 -38 -12.5t-25.5 -22.5t-25.5 -35l-53 50q23 46 63 76t85 30t102 -34q4 -2 14 -8.5t13.5 -8.5t11 -6.5t11.5 -5.5t10 -3.5t11 -3t10 -0.5q25 0 44 17t42 53zM450 268l53 -50q-26 -49 -62 -78
t-77 -29q-45 0 -107 38q-51 34 -82 34q-20 0 -38 -12.5t-25.5 -22.5t-25.5 -36l-53 50q23 46 63 76t85 30q44 0 101 -33q7 -4 21.5 -13t21 -13t18 -7.5t21.5 -3.5q26 0 44 16.5t42 53.5z" />
    <glyph glyph-name="notequal" unicode="&#x2260;" horiz-adv-x="539" 
d="M404 517l-35 -82h123v-88h-155l-54 -128h209v-88h-242l-46 -110l-69 27l36 83h-125v88h158l53 128h-211v88h243l46 108z" />
    <glyph glyph-name="lessequal" unicode="&#x2264;" horiz-adv-x="539" 
d="M490 101l-439 221v96l438 220v-101l-354 -166v-2l355 -166v-102zM494 -23h-446v89h446v-89z" />
    <glyph glyph-name="greaterequal" unicode="&#x2265;" horiz-adv-x="539" 
d="M53 638l439 -221v-95l-439 -221v102l354 166v2l-354 166v101zM492 -23h-443v89h443v-89z" />
    <glyph glyph-name="lozenge" unicode="&#x25ca;" horiz-adv-x="601" 
d="M554 348l-195 -399h-125l-187 399l194 400h125zM417 345l-95 212q-14 40 -18 65h-4q-8 -32 -19 -65l-97 -206l96 -217q10 -29 17 -61h5q8 41 17 58z" />
    </font>
</defs>
</svg>
